<?xml version="1.0" standalone="no"?>
<!DOCTYPE svg PUBLIC "-//W3C//DTD SVG 20010904//EN"
 "http://www.w3.org/TR/2001/REC-SVG-20010904/DTD/svg10.dtd">
<svg version="1.0" xmlns="http://www.w3.org/2000/svg"
 width="1786.000000pt" height="1786.000000pt" viewBox="0 0 1786.000000 1786.000000"
 preserveAspectRatio="xMidYMid meet">
<metadata>
Created by potrace 1.14, written by Peter Selinger 2001-2017
</metadata>
<g transform="translate(0.000000,1786.000000) scale(0.100000,-0.100000)"
fill="#000000" stroke="none">
<path d="M8785 17831 c-2 -2 -49 -4 -104 -4 -61 -1 -101 -6 -101 -12 0 -7 -3
-7 -8 0 -9 13 -62 14 -62 2 0 -5 -6 -4 -13 2 -8 6 -16 8 -19 6 -12 -12 -48
-13 -48 -2 0 8 -3 8 -8 2 -4 -6 -36 -12 -72 -14 -100 -6 -104 -6 -117 -14 -6
-4 -15 -2 -19 4 -4 8 -9 7 -15 -2 -7 -11 -9 -11 -9 -1 0 9 -5 10 -17 4 -10 -5
-37 -9 -61 -8 -23 0 -42 -1 -42 -4 0 -3 -21 -5 -47 -5 -27 1 -52 -1 -58 -4
-11 -6 -48 -10 -117 -14 -25 -1 -44 -5 -42 -9 2 -3 -14 -5 -36 -4 -22 2 -40 0
-40 -4 0 -3 -10 -7 -22 -7 -47 -3 -105 -10 -114 -15 -5 -2 -25 -4 -46 -4 -20
1 -34 -2 -31 -6 3 -6 -54 -12 -69 -7 -2 0 -15 -4 -30 -10 -21 -8 -28 -7 -28 2
0 8 -3 8 -9 -2 -5 -7 -14 -10 -20 -7 -6 4 -11 3 -11 -2 0 -8 -33 -13 -82 -13
-10 0 -18 -5 -18 -10 0 -6 -4 -8 -8 -5 -4 2 -36 -1 -70 -9 -34 -7 -62 -10 -62
-8 0 3 -6 1 -12 -4 -7 -6 -20 -11 -28 -12 -34 -2 -56 -7 -68 -15 -6 -4 -12 -5
-12 -3 0 3 -33 -4 -72 -15 -40 -11 -85 -20 -100 -20 -16 0 -28 -4 -28 -8 0 -3
-6 -7 -12 -8 -13 -1 -48 -9 -58 -12 -3 -1 -8 -2 -12 -1 -4 0 -25 -6 -47 -14
-23 -8 -41 -12 -41 -10 0 3 -12 0 -27 -6 -29 -11 -69 -21 -90 -22 -7 0 -13 -4
-13 -9 0 -5 -8 -8 -17 -6 -10 1 -24 -1 -30 -5 -7 -5 -23 -10 -35 -13 -13 -3
-27 -6 -33 -7 -5 -2 -16 -6 -22 -10 -7 -5 -13 -6 -13 -3 0 3 -16 -2 -35 -10
-19 -8 -37 -14 -40 -14 -9 1 -120 -34 -125 -40 -6 -6 -29 -12 -47 -13 -7 0
-13 -5 -13 -10 0 -6 -3 -8 -6 -4 -4 3 -28 -2 -55 -12 -26 -10 -50 -16 -53 -13
-3 3 -14 -2 -23 -11 -10 -8 -21 -16 -25 -16 -16 -2 -28 -6 -62 -20 -16 -6 -36
-13 -45 -14 -9 -2 -26 -8 -37 -15 -12 -6 -24 -8 -28 -5 -3 3 -6 0 -6 -7 0 -7
-3 -10 -6 -7 -4 4 -19 0 -33 -7 -39 -21 -132 -56 -147 -56 -8 0 -14 -4 -14
-10 0 -5 -6 -10 -14 -10 -7 0 -31 -7 -52 -16 -22 -9 -41 -16 -44 -16 -3 0 -16
-8 -30 -17 -14 -10 -44 -23 -67 -31 -24 -7 -43 -17 -43 -22 0 -4 -5 -8 -11 -8
-5 0 -7 6 -4 13 4 6 0 4 -8 -6 -9 -10 -22 -20 -30 -21 -8 -1 -22 -8 -31 -15
-9 -7 -16 -11 -16 -7 0 4 -13 0 -30 -9 -16 -8 -33 -15 -36 -14 -4 0 -10 -3
-13 -8 -7 -10 -67 -39 -98 -48 -13 -3 -23 -11 -23 -16 0 -6 -4 -8 -9 -4 -5 3
-17 -3 -27 -12 -10 -10 -19 -17 -21 -16 -7 5 -39 -11 -46 -24 -5 -7 -12 -11
-17 -8 -8 5 -47 -11 -60 -25 -7 -7 -53 -27 -64 -28 -5 0 -12 -6 -17 -13 -4 -7
-15 -14 -25 -15 -10 -2 -21 -10 -26 -18 -5 -8 -15 -13 -23 -10 -8 4 -15 1 -15
-5 0 -6 -9 -11 -20 -11 -11 0 -20 -4 -20 -10 0 -5 -7 -10 -15 -10 -8 0 -15 -4
-15 -8 0 -5 -16 -14 -35 -22 -19 -7 -31 -18 -28 -23 4 -6 0 -8 -10 -4 -10 3
-17 3 -17 -1 0 -6 -58 -45 -70 -46 -3 -1 -20 -11 -38 -24 -17 -13 -32 -20 -32
-16 0 4 -7 -1 -15 -12 -8 -10 -15 -15 -15 -11 0 5 -7 1 -16 -7 -8 -9 -19 -14
-24 -11 -4 3 -10 -2 -14 -10 -3 -8 -12 -15 -21 -15 -8 0 -15 -4 -15 -10 0 -5
-7 -10 -15 -10 -7 0 -18 -7 -23 -16 -5 -9 -12 -15 -16 -15 -12 2 -66 -30 -66
-39 0 -6 -8 -10 -18 -10 -10 0 -24 -9 -32 -20 -10 -14 -16 -16 -22 -7 -5 8 -8
7 -8 -5 0 -16 -6 -20 -27 -17 -3 0 -10 -6 -15 -15 -5 -9 -16 -16 -23 -16 -8 0
-15 -4 -15 -10 0 -5 -6 -10 -14 -10 -7 0 -21 -11 -32 -24 -10 -14 -21 -23 -26
-20 -4 3 -16 -4 -28 -16 -11 -11 -23 -20 -28 -20 -4 0 -20 -11 -36 -25 -16
-13 -33 -22 -39 -18 -5 3 -8 2 -5 -3 3 -5 0 -15 -8 -22 -8 -7 -14 -10 -14 -7
0 6 -18 -7 -55 -42 -16 -14 -26 -17 -29 -10 -2 7 -5 4 -5 -5 -1 -10 -5 -18
-11 -18 -10 0 -38 -21 -74 -55 -12 -11 -24 -19 -27 -18 -3 1 -24 -15 -46 -35
-22 -20 -44 -39 -49 -41 -5 -2 -15 -6 -21 -8 -7 -3 -11 -9 -8 -13 3 -5 -4 -11
-15 -15 -11 -3 -20 -11 -20 -17 0 -6 -3 -9 -6 -6 -3 3 -18 -6 -34 -20 -36 -34
-55 -50 -100 -85 -47 -38 -126 -106 -161 -139 -15 -14 -30 -23 -33 -20 -3 3
-6 -2 -6 -11 0 -9 -5 -17 -10 -17 -6 0 -31 -20 -55 -45 -25 -24 -45 -41 -45
-37 0 4 -9 -6 -20 -23 -11 -16 -20 -26 -20 -22 0 4 -13 -6 -30 -23 -16 -16
-34 -30 -40 -30 -5 0 -9 -3 -8 -7 1 -5 -19 -29 -45 -54 -26 -26 -47 -44 -47
-41 0 3 -9 -5 -20 -18 -11 -13 -20 -26 -20 -29 0 -3 -14 -15 -30 -26 -16 -11
-30 -26 -30 -32 0 -7 -6 -13 -14 -13 -14 0 -31 -27 -27 -43 1 -5 -3 -6 -8 -3
-4 3 -35 -23 -66 -59 -32 -35 -63 -62 -69 -58 -6 3 -8 3 -4 -1 7 -9 3 -15 -57
-79 -22 -23 -43 -41 -47 -39 -5 1 -7 -1 -7 -5 3 -20 -2 -34 -10 -29 -5 3 -11
-4 -14 -15 -3 -12 -10 -18 -16 -14 -6 3 -11 -1 -11 -9 0 -9 -4 -16 -8 -16 -5
0 -15 -11 -22 -25 -7 -13 -17 -22 -22 -19 -7 4 -12 -11 -6 -18 5 -6 -48 -54
-54 -51 -7 4 -12 -12 -9 -29 0 -5 -6 -8 -14 -8 -8 0 -15 -5 -15 -11 0 -7 -11
-22 -24 -34 -14 -13 -22 -25 -20 -28 3 -3 -4 -11 -16 -17 -12 -6 -20 -14 -17
-16 3 -3 -10 -21 -29 -39 -19 -19 -34 -39 -34 -44 0 -6 -8 -15 -17 -20 -10 -6
-15 -11 -11 -11 7 0 -17 -32 -49 -66 -7 -7 -13 -15 -13 -18 0 -14 -89 -114
-96 -108 -4 4 -4 2 0 -5 3 -6 2 -14 -4 -18 -6 -4 -8 -10 -5 -15 3 -5 -4 -11
-15 -15 -11 -4 -18 -10 -15 -14 4 -8 -6 -22 -60 -83 -8 -10 -15 -24 -15 -31 0
-7 -9 -19 -19 -27 -11 -7 -18 -17 -15 -22 3 -4 1 -8 -3 -8 -13 0 -44 -56 -35
-64 4 -4 2 -6 -4 -4 -7 1 -11 -1 -10 -5 0 -5 -7 -13 -17 -18 -9 -6 -15 -14
-12 -20 4 -5 1 -9 -5 -9 -6 0 -16 -13 -21 -30 -6 -16 -15 -27 -20 -24 -5 3 -9
-1 -9 -9 0 -8 -7 -20 -15 -27 -8 -7 -13 -16 -10 -20 3 -4 -2 -11 -11 -14 -8
-3 -13 -10 -10 -15 4 -5 2 -11 -3 -13 -5 -1 -11 -9 -13 -17 -2 -7 -13 -24 -26
-37 -13 -13 -20 -29 -17 -34 3 -6 1 -10 -5 -10 -6 0 -15 -11 -20 -25 -5 -14
-14 -25 -20 -25 -5 0 -9 -3 -8 -7 3 -14 -25 -63 -35 -63 -6 0 -7 -3 -4 -6 4
-4 -2 -19 -13 -34 -11 -16 -20 -33 -20 -39 0 -6 -4 -11 -10 -11 -5 0 -10 -7
-10 -15 0 -8 -5 -15 -11 -15 -5 0 -8 -4 -4 -9 3 -5 1 -12 -5 -16 -6 -3 -17
-21 -25 -38 -28 -59 -87 -162 -97 -168 -5 -3 -10 -9 -9 -12 1 -13 -29 -76 -39
-82 -5 -3 -10 -15 -10 -26 0 -10 -4 -19 -10 -19 -5 0 -10 -8 -10 -17 -1 -22
-25 -55 -33 -46 -4 3 -5 -4 -2 -16 2 -11 0 -21 -4 -21 -9 0 -24 -38 -22 -53 1
-4 -6 -10 -14 -13 -8 -3 -13 -10 -10 -14 3 -5 1 -11 -5 -15 -5 -3 -10 -15 -10
-26 0 -10 -4 -19 -10 -19 -5 0 -10 -7 -10 -15 0 -8 -4 -15 -9 -15 -6 0 -8 -9
-6 -20 2 -11 -1 -20 -7 -20 -5 0 -7 -7 -4 -16 3 -8 2 -13 -3 -10 -5 3 -14 -8
-20 -24 -5 -17 -7 -30 -4 -30 4 0 -2 -7 -13 -15 -10 -8 -16 -15 -11 -15 4 0
-2 -17 -13 -37 -11 -21 -20 -43 -20 -50 0 -7 -5 -13 -12 -13 -6 0 -8 -3 -5 -7
4 -3 2 -12 -4 -20 -6 -7 -8 -13 -5 -13 4 0 0 -10 -8 -22 -9 -12 -16 -30 -16
-40 0 -10 -4 -18 -10 -18 -5 0 -10 -9 -10 -19 0 -11 -5 -23 -10 -26 -6 -4 -8
-11 -5 -16 4 -5 1 -9 -4 -9 -6 0 -10 -3 -9 -7 4 -15 -24 -83 -33 -83 -6 0 -8
-4 -5 -9 7 -10 -15 -71 -31 -89 -6 -7 -10 -21 -8 -32 2 -11 0 -20 -6 -20 -5 0
-8 -3 -7 -7 1 -5 -3 -18 -10 -29 -6 -12 -8 -24 -5 -28 3 -3 2 -6 -3 -6 -5 0
-11 -10 -11 -22 -1 -13 -6 -24 -12 -26 -5 -2 -7 -15 -5 -28 3 -15 1 -23 -5
-20 -9 6 -27 -49 -23 -66 1 -5 -2 -8 -6 -8 -4 0 -8 -10 -9 -22 -1 -11 -6 -24
-11 -27 -5 -3 -8 -14 -6 -23 1 -10 -2 -20 -7 -24 -5 -3 -7 -10 -4 -15 4 -5 1
-9 -6 -9 -6 0 -9 -8 -6 -20 3 -11 1 -20 -5 -20 -5 0 -6 -4 -3 -10 3 -5 1 -10
-5 -10 -6 0 -8 -5 -5 -10 4 -6 1 -17 -5 -25 -7 -8 -9 -15 -6 -15 4 0 2 -9 -4
-21 -6 -11 -14 -30 -16 -42 -7 -29 -10 -39 -17 -57 -4 -8 -8 -26 -9 -40 -2
-14 -7 -28 -12 -32 -5 -3 -10 -19 -11 -35 -2 -15 -4 -29 -5 -30 -1 -2 -4 -7
-5 -13 -1 -5 -4 -12 -5 -15 -7 -14 -24 -99 -22 -107 1 -5 -2 -8 -8 -8 -6 0 -9
-3 -8 -7 5 -21 -47 -211 -57 -205 -5 3 -4 -1 3 -10 9 -12 10 -18 2 -23 -7 -4
-10 -16 -7 -26 3 -11 1 -19 -5 -19 -6 0 -8 -6 -5 -14 3 -8 3 -17 -1 -20 -3 -4
-7 -14 -8 -24 -2 -9 -6 -33 -10 -52 -4 -19 -7 -38 -6 -42 1 -5 -3 -8 -9 -8 -8
0 -8 -5 1 -15 10 -12 10 -15 0 -15 -8 0 -11 -3 -8 -6 3 -3 1 -22 -4 -42 -6
-20 -12 -48 -14 -62 -1 -14 -6 -38 -9 -55 -4 -16 -8 -39 -9 -50 -1 -12 -5 -25
-8 -30 -3 -6 -4 -18 -3 -27 2 -10 -1 -18 -6 -18 -4 0 -6 -7 -3 -15 3 -8 1 -28
-4 -45 -8 -22 -8 -30 1 -30 7 0 6 -4 -3 -10 -8 -5 -11 -10 -7 -10 4 0 3 -9 -3
-20 -8 -15 -8 -20 2 -20 9 0 9 -3 -2 -10 -8 -5 -11 -10 -5 -10 5 0 4 -5 -3
-12 -7 -7 -8 -17 -2 -29 7 -11 7 -20 0 -24 -5 -3 -10 -24 -10 -46 0 -30 -3
-38 -12 -33 -10 6 -10 5 -1 -8 7 -8 10 -18 6 -22 -7 -6 -9 -19 -14 -91 -1 -22
-7 -48 -12 -59 -7 -14 -6 -16 4 -11 8 6 10 4 4 -5 -8 -14 -14 -52 -18 -125 -1
-22 -6 -43 -12 -47 -6 -5 -5 -8 3 -8 7 0 10 -5 6 -11 -3 -6 -7 -32 -8 -58 -1
-26 -6 -52 -10 -59 -4 -7 -2 -12 4 -12 7 0 8 -6 2 -17 -5 -10 -8 -28 -6 -41 2
-13 0 -21 -4 -18 -5 3 -9 -1 -9 -9 0 -8 3 -15 7 -15 3 0 6 -11 6 -25 0 -14 -3
-25 -7 -25 -9 0 -6 -20 4 -37 5 -7 4 -13 0 -13 -5 0 -9 -27 -8 -60 0 -33 -3
-60 -7 -60 -4 0 -4 -10 1 -22 4 -13 5 -35 0 -50 -5 -17 -4 -28 2 -28 6 0 7 -6
2 -12 -4 -7 -6 -39 -5 -70 2 -41 -1 -58 -10 -58 -9 0 -9 -3 1 -9 12 -7 12 -13
3 -24 -7 -7 -9 -17 -5 -21 4 -4 9 -80 10 -169 6 -298 7 -337 16 -337 4 0 4 -8
-2 -17 -5 -10 -5 -26 0 -40 5 -13 4 -25 -1 -28 -7 -4 -7 -13 0 -24 5 -10 7
-21 4 -24 -3 -3 -3 -11 1 -18 5 -6 8 -43 8 -80 1 -38 5 -69 9 -69 5 0 4 -9 -2
-20 -6 -11 -7 -20 -3 -20 5 0 9 -19 10 -42 4 -85 9 -123 17 -137 6 -9 5 -12
-2 -7 -6 3 -9 -1 -7 -11 2 -10 4 -18 6 -18 2 0 7 -31 10 -75 1 -19 6 -43 11
-52 5 -10 4 -19 -2 -23 -6 -4 -7 -12 -3 -18 9 -14 12 -31 16 -74 1 -18 6 -33
11 -33 5 0 3 -7 -4 -15 -10 -12 -10 -15 0 -15 7 0 10 -7 7 -15 -4 -8 -1 -17 5
-21 7 -4 6 -9 -3 -15 -10 -6 -10 -9 -2 -9 6 0 10 -9 8 -20 -2 -11 -1 -20 3
-20 5 0 8 -12 9 -27 3 -65 6 -93 13 -93 3 0 6 -10 7 -22 1 -40 14 -112 25
-131 7 -14 7 -17 -1 -13 -8 5 -8 0 -2 -17 6 -14 7 -28 4 -31 -4 -3 -2 -6 4 -6
6 0 9 -10 9 -22 -1 -13 0 -27 3 -33 6 -11 7 -15 15 -55 3 -14 8 -38 11 -55 4
-16 7 -36 7 -42 1 -7 4 -13 8 -13 4 0 6 -13 5 -30 -1 -16 1 -30 6 -30 4 0 9
-17 13 -38 3 -20 8 -50 11 -67 3 -16 6 -36 7 -42 1 -7 6 -13 11 -13 6 0 8 -3
5 -6 -4 -3 -2 -20 4 -37 11 -39 11 -38 28 -109 7 -32 16 -58 20 -58 4 0 6 -14
5 -30 -1 -17 3 -34 9 -38 6 -4 12 -16 13 -27 2 -11 4 -30 5 -42 1 -12 6 -19
10 -17 7 5 13 -26 9 -48 0 -5 4 -8 10 -8 5 0 7 -5 4 -10 -3 -6 -3 -16 2 -22 4
-7 8 -17 10 -23 8 -39 24 -89 44 -140 17 -45 43 -131 41 -137 -1 -5 3 -8 9 -8
6 0 9 -7 5 -15 -3 -8 -2 -15 2 -15 4 0 8 -10 9 -22 1 -11 6 -24 10 -27 9 -7
16 -28 17 -53 0 -10 4 -18 8 -18 4 0 8 -7 8 -15 0 -8 5 -15 11 -15 8 0 7 -6
-2 -17 -10 -11 -10 -14 -2 -9 8 4 13 1 13 -9 0 -8 4 -23 9 -33 4 -9 15 -30 23
-47 9 -16 14 -38 13 -48 -2 -9 0 -17 4 -17 4 0 18 -26 30 -57 37 -93 51 -127
61 -145 6 -10 10 -25 10 -33 0 -8 5 -15 11 -15 6 0 9 -6 6 -14 -3 -8 -1 -16 4
-18 6 -2 11 -11 12 -20 2 -9 9 -23 16 -32 7 -9 10 -16 6 -16 -5 0 0 -10 11
-22 12 -13 13 -18 4 -13 -11 6 -10 3 2 -12 10 -11 18 -27 18 -36 0 -9 5 -17
10 -17 6 0 10 -9 10 -20 0 -11 5 -20 10 -20 6 0 10 -7 10 -16 0 -18 41 -97 53
-102 4 -2 5 -8 1 -13 -3 -5 4 -21 15 -35 12 -15 21 -35 21 -45 0 -11 5 -19 11
-19 5 0 7 -4 4 -10 -3 -5 -2 -10 3 -10 6 0 13 -11 16 -24 3 -14 12 -31 19 -38
6 -7 29 -48 49 -90 21 -42 42 -80 48 -83 6 -4 8 -11 5 -16 -4 -5 -1 -9 4 -9 6
0 11 -7 11 -15 0 -8 5 -15 11 -15 5 0 8 -4 4 -9 -3 -5 -1 -12 5 -16 6 -4 8
-11 5 -16 -4 -5 -2 -9 4 -9 6 0 21 -22 34 -50 13 -27 28 -46 32 -42 5 4 6 -1
2 -10 -3 -10 0 -19 9 -22 9 -3 13 -10 10 -14 -3 -5 5 -19 18 -33 12 -13 21
-30 18 -37 -2 -6 4 -12 13 -12 9 0 14 -4 10 -9 -3 -5 1 -16 9 -24 8 -8 12 -17
9 -21 -4 -3 -1 -6 6 -6 7 0 9 -5 6 -10 -3 -6 -1 -10 4 -10 6 0 11 -7 11 -15 0
-8 4 -15 8 -15 4 0 16 -13 25 -30 10 -16 15 -30 12 -30 -3 0 6 -12 20 -26 14
-14 23 -30 20 -35 -4 -5 1 -9 10 -9 9 0 14 -4 11 -9 -5 -7 3 -20 44 -68 6 -7
7 -13 3 -13 -4 -1 3 -10 17 -21 14 -12 24 -24 22 -28 -2 -3 4 -15 12 -26 8
-11 15 -23 16 -27 0 -5 8 -17 18 -27 22 -25 33 -40 54 -72 9 -14 24 -34 33
-43 9 -9 14 -16 10 -16 -3 0 -1 -6 5 -13 5 -6 24 -28 40 -47 16 -19 32 -43 36
-52 3 -10 10 -18 15 -18 5 0 9 -6 9 -14 0 -8 7 -17 16 -20 9 -4 14 -9 10 -13
-3 -3 3 -12 14 -20 11 -8 20 -20 20 -26 0 -7 9 -19 20 -27 11 -8 20 -19 20
-25 0 -6 9 -17 20 -25 11 -8 20 -23 20 -33 0 -10 4 -16 9 -12 6 3 15 -5 22
-17 7 -13 21 -31 32 -41 11 -9 17 -17 13 -17 -4 0 9 -16 29 -35 19 -20 35 -38
35 -42 0 -3 10 -14 22 -24 11 -11 18 -19 15 -19 -4 0 8 -16 26 -35 17 -19 50
-55 72 -81 22 -26 66 -74 97 -108 31 -33 54 -65 51 -71 -4 -5 -3 -7 1 -3 9 7
76 -58 76 -73 0 -6 4 -8 9 -4 5 3 12 -4 16 -15 3 -11 13 -20 21 -20 8 0 14 -4
14 -9 0 -5 29 -38 64 -74 35 -36 62 -68 58 -71 -3 -3 1 -6 9 -6 8 0 49 -36 92
-80 42 -44 81 -80 85 -80 4 0 18 -14 31 -30 13 -16 27 -27 32 -24 5 3 9 0 9
-6 0 -6 9 -20 20 -32 11 -12 20 -19 20 -16 0 4 25 -17 55 -45 84 -80 112 -105
135 -117 11 -6 18 -15 15 -21 -4 -5 0 -9 7 -9 8 0 21 -8 29 -17 26 -30 69 -63
80 -63 5 0 8 -4 5 -8 -2 -4 9 -14 25 -21 16 -7 27 -17 23 -22 -3 -5 0 -9 5 -9
10 0 36 -19 66 -47 8 -7 17 -13 22 -13 4 0 14 -9 21 -20 7 -11 16 -20 21 -20
6 0 25 -13 43 -30 18 -16 38 -30 46 -30 7 0 10 -5 7 -10 -3 -6 1 -10 10 -10 8
0 18 -7 21 -15 3 -8 15 -17 25 -20 11 -4 34 -20 51 -36 18 -16 38 -29 44 -29
7 0 15 -7 18 -16 3 -8 9 -13 13 -11 11 6 43 -30 35 -39 -4 -4 -1 -4 7 1 7 4
16 3 20 -2 9 -15 129 -93 141 -93 6 0 8 -4 5 -10 -3 -5 0 -10 9 -10 8 0 16 -4
18 -9 2 -5 10 -11 18 -13 8 -2 22 -10 30 -18 8 -8 27 -21 43 -29 15 -8 27 -18
27 -23 0 -5 4 -7 9 -4 5 3 11 -1 15 -9 3 -8 12 -15 21 -15 8 0 24 -9 35 -20
12 -12 25 -18 29 -15 5 2 11 -2 15 -10 3 -8 12 -15 21 -15 8 0 15 -4 15 -10 0
-5 7 -10 15 -10 8 0 15 -4 15 -8 0 -5 16 -14 35 -22 19 -8 35 -17 35 -22 0 -4
6 -8 13 -8 7 0 23 -9 35 -20 12 -12 22 -17 22 -13 0 4 7 -1 16 -12 8 -11 17
-19 20 -17 7 5 64 -22 64 -30 0 -5 7 -8 15 -8 8 0 15 -5 15 -11 0 -5 5 -7 10
-4 6 3 10 1 10 -5 0 -6 5 -8 10 -5 6 3 10 3 10 -2 0 -9 61 -39 73 -35 4 1 7
-5 7 -14 0 -8 4 -12 10 -9 6 3 10 1 10 -6 0 -7 3 -9 7 -6 3 4 20 -2 38 -13 18
-11 36 -16 41 -12 5 4 5 3 1 -2 -7 -9 102 -69 126 -70 5 -1 14 -9 21 -18 7
-10 16 -15 19 -12 3 3 31 -8 62 -25 31 -17 63 -31 71 -31 8 0 14 -5 14 -11 0
-5 4 -8 9 -4 6 3 14 -3 20 -12 6 -10 11 -14 11 -9 0 4 11 1 25 -8 14 -9 25
-14 25 -10 0 3 11 -1 25 -10 13 -9 31 -16 40 -16 9 0 18 -6 21 -14 3 -8 14
-13 25 -11 10 2 19 0 19 -6 0 -5 7 -9 15 -9 8 0 15 -5 15 -12 0 -6 3 -9 6 -5
8 7 64 -13 64 -24 0 -4 7 -6 15 -3 8 4 15 1 15 -5 0 -6 3 -10 8 -9 4 1 16 -3
27 -9 11 -6 22 -11 25 -11 3 0 25 -8 50 -18 25 -10 48 -18 52 -16 5 1 8 -3 8
-9 0 -5 4 -8 9 -4 5 3 16 -1 24 -9 8 -8 17 -12 21 -9 3 4 6 2 6 -3 0 -5 12
-10 26 -11 15 0 29 -5 33 -10 6 -8 27 -15 49 -16 6 0 12 -4 12 -9 0 -4 8 -8
18 -8 10 0 22 -3 26 -8 4 -4 12 -8 17 -8 5 -1 11 -3 14 -4 3 -1 8 -3 13 -5 4
-1 15 -5 24 -9 9 -4 22 -9 30 -10 7 -2 24 -8 38 -13 14 -6 28 -9 32 -6 5 2 8
-1 8 -6 0 -6 9 -11 19 -11 11 0 23 -5 26 -11 4 -6 13 -8 21 -5 8 3 14 1 14 -4
0 -5 6 -7 14 -4 8 3 17 1 21 -5 3 -6 15 -11 26 -11 10 0 19 -4 19 -10 0 -5 6
-7 14 -4 8 3 17 0 21 -5 3 -6 10 -9 15 -6 4 3 24 -2 43 -10 19 -8 37 -11 41
-8 3 4 6 1 6 -6 0 -6 6 -11 13 -10 6 1 19 0 27 -4 27 -10 124 -38 142 -41 10
-1 21 -5 24 -9 4 -4 18 -7 31 -7 13 0 23 -4 23 -9 0 -6 9 -8 20 -6 11 2 20 0
20 -5 0 -4 9 -6 20 -3 11 3 20 1 20 -4 0 -5 14 -10 32 -11 17 -2 38 -8 45 -14
7 -6 13 -7 13 -3 0 4 7 2 15 -5 11 -9 15 -9 15 -1 0 8 7 8 21 -3 12 -8 28 -12
35 -9 8 3 14 0 14 -6 0 -6 7 -8 15 -5 8 3 20 2 27 -2 13 -9 25 -12 68 -17 14
-2 32 -7 38 -11 7 -4 19 -5 27 -2 8 3 15 2 15 -2 0 -4 8 -9 18 -10 19 -2 56
-10 60 -12 1 -1 14 -2 30 -3 15 0 29 -4 32 -8 3 -5 28 -10 55 -12 28 -3 57 -7
65 -10 22 -8 103 -24 155 -30 11 -1 26 -7 34 -11 10 -7 12 -5 6 3 -6 10 -3 11
15 1 12 -6 28 -9 36 -6 8 3 14 1 14 -3 0 -5 9 -7 20 -4 11 3 20 0 20 -6 0 -8
5 -9 19 -1 11 5 21 6 23 1 2 -5 23 -10 48 -12 25 -1 51 -7 59 -13 12 -9 13 -8
7 2 -7 11 -4 12 11 3 11 -5 28 -10 39 -10 10 0 42 -3 69 -6 28 -4 59 -7 69 -6
11 0 27 -4 38 -10 12 -7 18 -6 18 1 0 7 5 8 13 3 6 -4 20 -6 31 -4 13 2 16 -1
10 -11 -6 -10 -5 -11 8 -1 8 7 18 10 22 6 4 -4 28 -8 54 -9 95 -6 187 -12 187
-14 0 -2 188 -11 258 -13 26 0 47 -6 47 -11 0 -7 3 -8 8 -1 10 14 32 17 32 4
0 -6 5 -7 13 -2 18 11 37 12 37 2 0 -6 7 -6 19 0 10 6 21 8 24 4 10 -9 51 -10
70 -1 11 6 17 5 17 -3 0 -8 4 -8 15 1 12 10 15 10 15 0 0 -10 3 -10 15 0 11 9
15 9 15 1 0 -8 5 -9 18 -2 10 5 24 6 32 1 7 -4 23 -5 35 0 12 4 29 4 38 -1 9
-6 17 -6 17 -2 0 10 41 10 57 0 7 -4 15 -2 19 4 4 8 9 7 16 -2 8 -11 11 -11
15 -1 4 10 8 10 19 1 8 -6 14 -8 14 -3 0 11 71 11 89 -1 9 -5 12 -4 8 1 -6 10
12 11 214 16 59 2 105 6 102 11 -2 4 0 7 6 7 5 0 13 -5 16 -10 4 -6 12 -7 18
-3 16 10 31 12 92 16 28 1 56 7 64 11 10 6 12 5 7 -2 -5 -9 0 -10 16 -4 13 4
40 7 60 7 21 0 38 5 38 10 0 6 5 3 10 -5 5 -8 10 -10 10 -5 0 6 12 10 28 10
15 -1 31 1 36 4 5 2 28 6 49 7 22 2 44 9 49 16 4 7 8 8 8 3 0 -6 17 -10 38 -9
20 1 37 3 37 4 0 1 16 4 35 7 19 2 42 9 52 14 11 6 19 5 23 -1 4 -7 11 -7 18
-2 7 5 20 8 30 7 9 -2 17 0 17 5 0 4 9 6 20 3 11 -3 28 1 37 8 14 12 16 12 8
0 -6 -11 -5 -12 6 -5 8 4 21 10 29 11 69 13 88 16 108 17 12 0 22 4 22 7 0 3
10 5 23 4 12 -1 26 0 32 3 5 3 18 7 30 9 11 1 34 5 50 9 17 3 40 6 53 6 12 0
22 4 22 8 0 5 8 7 18 5 9 -1 23 2 29 7 7 6 19 8 27 5 8 -3 17 -3 20 1 4 3 12
7 19 8 7 2 25 6 42 9 16 3 33 12 37 18 6 9 8 9 8 -1 0 -7 4 -10 10 -7 10 6 33
12 75 20 24 5 78 20 123 33 17 6 32 8 32 5 0 -3 7 0 15 7 9 7 18 10 22 6 3 -3
17 1 31 10 13 9 21 11 18 5 -4 -6 13 -2 38 8 24 11 46 18 49 15 2 -2 21 3 41
11 20 9 41 13 46 10 6 -4 10 -1 10 6 0 7 3 9 6 6 4 -3 14 -2 24 3 9 5 30 11
46 14 16 3 30 10 32 15 2 6 10 7 17 5 8 -3 20 -2 27 2 7 5 19 9 26 10 8 2 21
6 30 10 9 4 26 9 37 11 11 2 21 8 23 13 2 5 10 6 18 3 8 -3 14 0 14 7 0 6 5 8
10 5 6 -4 17 -1 25 5 8 7 15 9 15 5 0 -4 12 0 26 10 15 9 23 12 20 6 -4 -6 -2
-11 3 -11 6 0 11 4 11 9 0 5 10 12 23 16 32 11 37 12 40 15 3 2 40 11 55 12 6
1 12 6 12 11 0 6 3 8 6 4 3 -3 22 3 41 14 19 11 31 14 27 7 -5 -8 -2 -8 10 2
10 8 27 16 39 17 12 2 24 8 28 14 3 6 9 10 13 9 4 -1 21 4 39 11 18 6 34 12
37 13 3 1 22 9 43 19 20 10 42 15 49 11 7 -4 8 -3 4 4 -4 7 0 13 11 14 10 0
24 2 31 2 7 1 16 6 20 13 4 6 16 13 27 15 11 1 26 9 34 16 7 7 18 11 25 9 6
-2 17 2 24 10 8 7 18 11 23 8 5 -4 9 -1 9 5 0 6 5 8 10 5 6 -3 13 0 16 9 3 8
12 12 20 9 8 -3 14 0 14 7 0 6 4 9 9 5 5 -3 13 0 16 6 4 5 13 8 21 5 7 -3 17
0 21 7 8 13 93 54 104 50 4 -1 15 7 24 17 10 11 26 20 36 20 10 0 25 8 35 18
10 9 18 15 18 13 2 -8 46 11 46 20 0 5 4 9 10 9 18 0 90 34 90 43 0 4 4 6 9 2
5 -3 12 -1 16 5 4 6 11 7 17 4 6 -4 8 -2 5 3 -6 10 47 38 66 34 4 0 7 6 7 14
0 9 6 12 15 9 8 -4 15 -1 15 7 0 7 3 9 6 6 4 -4 19 2 34 13 16 11 30 20 33 20
9 0 112 65 115 73 2 4 8 5 13 1 5 -3 9 0 9 5 0 6 3 10 8 9 10 -2 44 13 59 26
34 30 41 34 47 29 3 -3 8 2 12 11 3 9 10 14 14 11 5 -3 15 1 23 9 8 8 17 12
21 9 3 -4 6 -1 6 6 0 7 5 9 10 6 6 -3 10 -1 10 5 0 11 48 35 63 31 5 -1 6 3 3
8 -3 5 8 14 24 21 17 7 30 16 30 21 0 5 7 9 15 9 8 0 15 5 15 11 0 5 4 8 9 5
5 -3 11 1 15 9 3 8 11 15 18 15 7 0 26 11 42 25 16 13 32 22 36 20 4 -3 10 2
14 10 3 8 12 15 21 15 8 0 15 5 15 10 0 6 7 10 15 10 7 0 18 6 22 12 9 15 69
58 79 58 4 0 15 9 25 21 9 11 19 19 21 17 4 -3 80 53 90 67 4 5 8 6 8 1 0 -5
11 3 25 18 14 15 25 24 25 21 0 -3 10 3 22 14 11 11 26 18 31 14 6 -3 7 -2 4
4 -4 5 5 16 18 23 14 7 25 17 25 22 0 5 4 7 9 4 5 -3 11 1 15 9 3 8 13 15 21
15 9 0 13 5 10 10 -6 9 8 14 28 11 5 -1 6 3 3 8 -4 5 7 15 23 22 16 7 28 16
25 20 -2 4 5 10 16 14 11 4 18 11 15 16 -4 5 0 9 7 9 13 0 56 34 129 102 22
21 41 36 42 35 4 -3 92 74 155 136 12 12 22 17 22 12 1 -6 7 1 15 15 8 14 14
22 15 18 0 -3 20 13 44 38 25 24 49 44 55 44 6 0 11 7 11 15 0 8 4 15 8 15 5
0 57 48 117 107 60 60 113 107 117 106 5 -2 8 3 8 11 0 8 9 18 20 21 11 4 18
10 15 15 -3 5 4 14 15 20 11 6 18 15 15 21 -4 5 -2 9 2 9 5 0 26 16 46 35 20
19 36 35 34 35 -2 0 27 32 65 72 37 39 68 76 68 80 0 5 5 6 10 3 6 -3 10 -1
10 5 0 6 11 21 25 34 14 13 25 26 25 29 0 4 12 20 28 36 62 67 72 79 72 91 0
7 7 10 16 6 8 -3 12 -2 9 4 -3 6 -1 10 4 10 6 0 11 5 11 11 0 6 9 22 20 36 11
14 20 23 20 19 0 -4 6 -1 14 6 7 7 11 18 9 25 -2 6 5 14 16 18 12 3 19 11 16
16 -4 5 -1 9 4 9 6 0 11 5 11 10 0 16 47 60 56 52 4 -4 4 -2 1 5 -7 10 9 34
56 84 9 10 17 24 17 29 0 6 5 10 10 10 6 0 10 6 10 13 0 7 9 19 20 27 11 8 20
18 20 23 0 5 6 14 13 21 6 8 19 24 27 36 8 13 23 32 33 42 9 10 14 18 10 18
-3 0 4 9 17 20 13 11 20 20 16 20 -4 0 -1 7 6 15 30 33 38 45 32 45 -4 0 3 8
14 19 12 10 19 21 15 25 -3 3 -1 6 5 6 7 0 12 7 12 16 0 8 4 13 9 10 5 -3 12
5 15 19 4 14 11 25 16 25 6 0 10 4 10 10 0 11 91 144 102 148 5 2 6 8 3 12 -3
5 3 18 15 30 11 11 20 25 20 30 0 6 5 10 11 10 5 0 8 4 5 8 -3 5 3 18 14 29
10 12 16 24 13 27 -4 3 -2 6 4 6 6 0 23 24 38 53 15 28 33 59 41 68 8 8 14 21
14 27 0 7 5 12 11 12 5 0 8 4 4 9 -3 6 3 14 12 20 10 6 15 11 10 11 -4 0 4 18
18 40 14 22 25 44 25 50 0 5 4 10 8 10 5 0 17 20 28 45 10 25 22 45 26 45 4 0
8 7 8 15 0 8 5 15 11 15 5 0 8 4 4 9 -3 5 1 16 9 24 8 8 12 17 9 21 -4 3 -1 6
6 6 7 0 10 4 6 9 -3 6 3 14 12 20 10 6 14 11 9 11 -5 0 -3 7 4 15 6 8 9 19 5
25 -4 6 -1 9 5 8 7 -2 14 6 16 16 1 10 8 22 15 26 6 4 8 13 5 19 -4 6 -3 11 2
11 8 0 32 40 38 63 1 4 3 10 4 15 1 4 2 10 1 15 0 4 6 7 15 7 8 0 13 4 10 9
-8 13 19 62 29 53 5 -4 5 -2 2 4 -7 13 14 64 26 64 5 0 6 4 2 9 -3 5 -1 12 5
16 6 4 8 11 5 16 -4 5 -1 9 5 9 6 0 8 5 5 10 -3 6 -2 10 2 10 8 0 34 59 34 77
0 5 7 15 14 23 7 8 17 27 20 43 4 15 11 27 17 27 5 0 7 4 4 8 -3 5 6 27 19 50
13 24 20 40 15 37 -6 -3 -7 1 -4 9 3 9 11 16 17 16 6 0 8 3 5 6 -4 3 0 17 7
31 8 15 12 30 9 35 -3 4 0 8 5 8 6 0 11 4 11 9 0 5 8 26 17 47 9 22 18 42 19
47 1 4 3 9 4 12 1 3 3 8 4 13 1 4 7 17 14 30 7 12 10 22 6 22 -3 0 -1 6 5 13
6 8 8 17 4 20 -3 4 -1 7 6 7 7 0 10 4 6 9 -3 5 -2 12 3 15 4 2 14 28 22 55 7
28 16 51 20 51 3 0 6 10 7 22 1 11 6 24 10 27 5 3 8 13 8 21 0 8 3 18 8 21 4
3 9 16 10 27 1 12 5 22 9 22 4 0 5 9 3 20 -2 11 1 20 6 20 6 0 7 5 4 10 -3 6
-2 10 4 10 6 0 8 6 5 14 -3 7 1 20 8 27 7 8 14 23 16 34 3 22 9 49 12 53 3 2
3 2 15 47 4 17 10 35 14 40 3 6 6 12 6 15 4 30 29 111 36 116 5 3 7 10 4 15
-4 5 -3 15 2 22 8 13 8 14 18 62 3 16 9 32 13 35 4 3 7 17 7 33 -1 15 3 27 8
27 5 0 7 7 4 15 -4 8 -2 17 2 20 8 4 26 92 23 108 -1 4 2 7 7 7 5 0 12 24 16
53 9 57 8 54 19 79 4 9 5 22 1 28 -3 5 -2 10 3 10 5 0 9 6 10 13 3 32 20 122
22 122 1 0 4 13 6 29 3 16 10 38 16 49 8 15 7 18 -4 11 -11 -6 -11 -5 1 9 7 9
11 24 7 32 -3 8 -1 15 5 15 6 0 7 5 4 10 -3 6 -3 15 1 22 4 7 9 25 11 42 2 16
6 41 9 55 5 28 13 79 18 122 2 14 6 32 11 39 6 9 4 11 -5 5 -9 -6 -8 -1 3 14
8 13 13 29 11 36 -3 7 0 16 6 20 8 5 8 11 -1 21 -6 8 -7 14 -3 14 5 0 10 15
11 33 1 17 4 50 8 72 3 22 7 56 9 75 1 20 5 40 8 45 3 6 4 19 2 29 -1 11 2 28
7 38 7 12 6 18 -1 18 -7 0 -8 6 -2 18 5 9 10 37 11 62 2 25 8 51 14 59 9 11 9
13 1 8 -8 -4 -11 2 -10 18 0 14 3 25 6 25 5 0 11 83 14 192 0 31 4 54 8 52 5
-3 4 20 -2 36 -1 3 -1 10 0 15 2 6 4 45 5 88 2 43 6 81 9 84 3 4 1 12 -5 20
-6 7 -8 13 -3 13 5 0 10 34 10 75 1 53 -2 73 -10 68 -7 -4 -6 -1 1 9 7 8 10
18 6 21 -3 4 0 13 6 21 7 8 8 17 3 20 -11 7 -9 57 3 76 5 8 4 11 -1 7 -6 -3
-9 58 -9 151 0 87 -3 162 -8 169 -4 6 -4 14 2 17 5 4 6 18 2 34 -4 15 -6 48
-5 75 1 26 -2 47 -7 47 -5 0 -5 10 0 23 5 13 6 28 3 34 -4 6 -7 35 -7 65 0 29
-4 56 -10 60 -6 5 -5 8 3 8 9 0 10 5 4 18 -5 9 -8 34 -7 55 1 20 -2 37 -6 37
-4 0 -4 14 1 30 5 19 5 28 -1 25 -7 -5 -15 85 -10 118 0 4 -4 7 -10 7 -8 0 -9
4 0 13 6 8 8 17 4 20 -6 6 -13 68 -16 135 -1 12 -4 22 -7 22 -3 0 -6 10 -7 23
-1 32 -12 141 -14 147 -1 3 -3 10 -4 15 -2 6 -4 12 -5 15 -1 3 -3 19 -4 35 -2
17 -7 43 -11 59 -6 23 -5 27 6 21 8 -5 7 0 -4 12 -9 11 -14 23 -10 27 4 4 1
11 -7 16 -11 7 -12 10 -2 10 8 0 10 5 6 12 -4 7 -9 25 -11 42 -2 16 -8 34 -13
41 -6 7 -5 16 2 23 7 7 8 12 2 12 -11 0 -12 6 -15 55 -1 14 -5 28 -10 31 -4 2
-6 11 -2 19 3 9 1 21 -4 28 -5 6 -9 19 -8 27 1 8 -3 26 -8 40 -4 14 -10 39
-12 55 -2 17 -8 47 -13 67 -5 20 -7 39 -4 42 3 4 1 6 -5 6 -5 0 -10 6 -11 13
-4 39 -18 112 -22 112 -2 0 -7 19 -15 57 -3 15 -9 38 -15 52 -5 13 -6 27 -3
30 4 3 2 6 -4 6 -6 0 -9 8 -6 19 3 10 0 22 -6 25 -6 4 -11 18 -11 31 0 13 -5
27 -10 30 -6 4 -8 10 -5 15 3 4 -2 27 -10 51 -9 24 -16 53 -17 66 -2 13 -6 23
-10 23 -4 0 -8 10 -8 23 0 13 -3 27 -7 31 -5 4 -9 12 -9 17 -1 5 -3 11 -4 14
-3 6 -3 6 -14 55 -5 19 -12 40 -17 46 -5 6 -10 19 -12 30 -8 42 -20 80 -30 92
-5 6 -6 12 -2 12 4 0 2 6 -4 13 -6 8 -8 17 -4 20 3 4 2 7 -3 7 -5 0 -11 12
-12 27 -1 15 -6 30 -12 33 -5 3 -12 17 -14 30 -2 14 -5 25 -6 25 -1 0 -3 7 -5
15 -2 8 -10 31 -19 51 -8 20 -12 39 -9 43 4 3 1 6 -5 6 -7 0 -12 6 -12 13 0 8
-7 28 -16 45 -8 18 -13 36 -10 41 3 5 -1 11 -9 15 -8 3 -12 12 -9 21 3 8 2 15
-4 15 -9 0 -26 50 -22 66 1 4 -4 10 -11 15 -7 4 -13 18 -14 30 -1 13 -7 25
-13 27 -7 2 -12 12 -12 22 0 10 -5 22 -10 25 -6 4 -8 10 -5 15 3 5 1 11 -5 15
-6 4 -8 11 -5 16 4 5 1 9 -4 9 -6 0 -11 5 -11 12 0 18 -33 88 -41 88 -4 0 -6
9 -4 20 2 11 -1 20 -7 20 -6 0 -8 3 -5 7 4 3 1 11 -7 17 -7 6 -18 30 -25 54
-6 23 -16 42 -21 42 -6 0 -10 7 -10 15 0 8 -9 29 -20 47 -11 18 -20 41 -20 51
0 9 -4 17 -10 17 -5 0 -10 6 -10 14 0 7 -11 30 -25 50 -13 20 -22 36 -18 36 3
0 0 7 -7 15 -6 8 -9 19 -5 25 3 5 1 10 -5 10 -6 0 -18 17 -27 38 -8 20 -20 40
-25 43 -5 3 -10 12 -12 20 -1 8 -7 23 -13 34 -7 11 -21 36 -32 55 -11 19 -28
51 -38 70 -9 19 -20 37 -23 40 -4 3 -13 20 -21 38 -8 17 -18 32 -22 32 -5 0
-5 5 -2 10 3 6 -1 13 -9 16 -9 3 -13 10 -10 15 3 5 0 9 -6 9 -6 0 -8 5 -5 10
3 6 2 10 -2 10 -5 0 -20 22 -34 50 -13 27 -27 50 -31 50 -5 0 -8 7 -8 15 0 9
-7 18 -15 21 -8 4 -12 10 -10 15 3 4 -3 17 -15 29 -11 11 -20 21 -19 23 3 7
-26 57 -33 57 -4 0 -8 6 -8 13 0 7 -9 23 -20 35 -11 12 -20 24 -20 27 0 9 -63
99 -72 103 -5 2 -8 10 -8 18 0 8 -4 14 -10 14 -5 0 -10 9 -10 21 0 11 -4 17
-10 14 -5 -3 -10 -2 -10 3 0 13 -62 106 -77 115 -7 4 -13 13 -13 18 0 6 -7 17
-15 26 -8 8 -12 19 -9 25 4 6 3 9 -2 6 -5 -3 -17 3 -26 14 -10 10 -15 18 -10
18 4 0 -1 7 -12 15 -10 8 -15 19 -10 26 4 8 3 10 -4 5 -7 -4 -12 -3 -12 2 0 5
-14 27 -30 48 -17 22 -41 52 -53 68 -12 15 -28 34 -34 41 -7 8 -13 16 -13 20
0 13 -28 34 -35 27 -5 -4 -5 -1 -1 6 4 7 1 15 -8 18 -9 3 -14 10 -11 14 3 5
-1 12 -8 17 -8 4 -19 18 -26 31 -7 12 -16 20 -22 17 -5 -4 -9 0 -9 8 0 8 -13
29 -29 46 -17 18 -31 35 -32 39 -1 4 -12 18 -25 32 -36 39 -76 85 -114 130
-40 48 -89 101 -166 182 -30 32 -54 62 -54 68 0 5 -6 9 -12 8 -7 -2 -12 2 -11
9 2 6 -6 15 -17 18 -11 4 -20 13 -20 21 0 8 -8 14 -17 14 -9 0 -14 2 -11 5 8
8 -78 95 -93 95 -7 0 -10 3 -6 6 8 8 -18 34 -33 34 -6 0 -9 3 -7 8 3 4 -1 13
-9 20 -8 7 -14 9 -14 5 0 -4 -9 6 -20 22 -11 17 -20 28 -20 24 0 -3 -35 29
-78 70 -43 42 -95 90 -115 107 -20 17 -33 35 -29 39 4 5 1 5 -6 1 -7 -4 -15
-1 -18 8 -3 9 -10 13 -15 10 -5 -3 -9 2 -9 10 0 9 -5 16 -11 16 -6 0 -28 17
-50 38 -63 60 -88 82 -94 82 -3 0 -22 16 -42 35 -20 19 -40 35 -45 35 -5 0 -6
5 -2 12 4 6 3 8 -2 5 -6 -3 -29 12 -54 34 -24 21 -47 39 -52 39 -4 0 -8 8 -8
18 0 12 -3 13 -8 5 -6 -9 -13 -5 -26 12 -10 14 -24 25 -31 25 -7 0 -15 7 -19
15 -3 8 -12 15 -21 15 -8 0 -15 7 -15 16 0 8 -5 12 -10 9 -6 -3 -13 1 -16 9
-3 9 -12 16 -20 16 -7 0 -20 10 -28 22 -9 12 -16 19 -16 16 0 -4 -12 4 -27 18
-14 13 -28 22 -30 20 -4 -4 -36 21 -79 61 -13 12 -24 18 -24 13 0 -6 -13 4
-29 21 -16 17 -32 29 -34 27 -3 -2 -17 7 -31 19 -14 13 -26 20 -26 16 0 -3 -9
4 -19 16 -11 12 -21 21 -23 20 -3 -3 -58 30 -68 41 -3 3 -14 12 -24 20 -18 13
-19 13 -12 0 6 -11 4 -11 -6 1 -15 19 -154 109 -167 109 -5 0 -12 7 -15 16 -3
8 -10 12 -16 9 -5 -3 -10 -1 -10 4 0 6 -7 11 -15 11 -8 0 -15 5 -15 10 0 6 -7
10 -15 10 -8 0 -15 5 -15 11 0 5 -5 7 -11 4 -6 -4 -17 2 -25 14 -9 12 -20 19
-25 16 -5 -4 -9 -1 -9 4 0 6 -7 11 -15 11 -8 0 -15 3 -15 8 0 4 -20 16 -45 27
-25 11 -45 23 -45 28 0 4 -4 5 -10 2 -5 -3 -10 -1 -10 4 0 6 -7 11 -16 11 -9
0 -12 5 -8 13 4 6 4 9 -1 5 -4 -4 -23 2 -42 13 -18 11 -33 18 -33 14 0 -3 -10
3 -22 15 -12 11 -28 20 -35 20 -7 0 -13 4 -13 8 0 8 -60 36 -72 33 -5 0 -8 4
-8 9 0 6 -7 10 -15 10 -8 0 -15 5 -15 11 0 5 -4 8 -9 4 -5 -3 -17 3 -27 12
-10 10 -18 17 -18 15 -2 -5 -66 23 -66 29 0 3 -18 12 -40 19 -22 7 -40 17 -40
22 0 5 -4 6 -10 3 -5 -3 -10 -1 -10 4 0 6 -3 11 -7 10 -16 -2 -53 14 -53 23 0
5 -4 7 -9 3 -5 -3 -15 0 -23 7 -7 7 -20 14 -28 16 -8 2 -18 9 -22 15 -4 7 -8
8 -8 3 0 -4 -10 -2 -22 6 -27 17 -134 61 -144 58 -3 -1 -12 7 -20 17 -7 10
-14 14 -14 10 0 -4 -10 -2 -22 5 -13 7 -25 13 -28 13 -3 1 -18 8 -35 15 -16 7
-32 14 -35 14 -3 1 -11 5 -18 10 -7 4 -16 6 -19 2 -3 -3 -12 2 -20 10 -8 8
-19 12 -24 9 -5 -4 -9 -1 -9 4 0 6 -6 11 -13 11 -8 0 -29 8 -48 17 -19 10 -41
18 -49 20 -8 1 -23 6 -35 11 -46 22 -129 52 -141 52 -8 0 -14 5 -14 11 0 5 -4
8 -8 5 -5 -3 -20 1 -35 9 -15 7 -37 15 -49 17 -13 2 -26 7 -29 11 -3 4 -18 10
-33 13 -15 2 -44 11 -64 19 -20 8 -46 15 -57 17 -11 2 -26 8 -32 15 -7 6 -22
9 -34 6 -15 -4 -20 -3 -15 5 6 11 -19 18 -46 13 -5 0 -8 4 -8 11 0 6 -3 9 -6
5 -3 -3 -27 1 -52 9 -51 16 -70 21 -104 29 -12 2 -24 8 -27 13 -3 4 -16 9 -28
10 -42 3 -53 5 -53 11 0 6 -26 11 -67 14 -7 0 -13 3 -13 7 0 6 -8 8 -47 11
-10 1 -22 5 -28 9 -5 5 -27 11 -49 14 -21 4 -41 8 -45 11 -7 4 -39 11 -96 22
-16 3 -32 8 -35 11 -5 7 -26 10 -77 14 -13 1 -23 6 -23 11 0 5 -8 3 -17 -4
-14 -12 -16 -12 -8 0 6 11 4 13 -7 8 -9 -3 -19 -3 -22 1 -4 3 -14 7 -24 9 -9
2 -30 6 -47 9 -16 3 -40 6 -52 7 -13 0 -23 4 -23 7 0 3 -8 6 -17 7 -10 1 -31
4 -48 8 -16 3 -50 8 -75 11 -25 4 -51 11 -57 16 -9 7 -13 7 -13 -1 0 -9 -5 -9
-20 -1 -11 6 -41 12 -65 13 -25 1 -45 5 -45 8 0 3 -15 6 -32 7 -18 1 -53 4
-78 8 -25 3 -58 7 -75 9 -16 2 -30 4 -30 5 0 1 -13 4 -30 6 -16 2 -48 6 -70 9
-22 2 -58 7 -80 10 -73 9 -149 16 -207 18 -32 1 -58 4 -58 7 0 3 -28 6 -63 7
-93 4 -202 11 -202 13 0 1 -19 3 -42 4 -24 1 -43 -3 -43 -9 0 -6 -3 -6 -8 1
-4 6 -49 10 -114 10 -63 -1 -110 3 -112 9 -3 6 -9 3 -15 -5 -8 -12 -11 -12
-11 -1 0 11 -3 11 -15 1 -8 -7 -15 -8 -15 -4 0 10 -92 10 -109 0 -6 -4 -11 -4
-11 1 0 8 -98 12 -105 4z"/>
</g>
</svg>
