<?xml version="1.0" encoding="UTF-8" standalone="no"?>
<!DOCTYPE svg PUBLIC "-//W3C//DTD SVG 1.1//EN"
 "http://www.w3.org/Graphics/SVG/1.1/DTD/svg11.dtd">
<!-- Generated by graphviz version 2.44.1 (20200629.0846)
 -->
<!-- Title: controllers_diagram Pages: 1 -->
<svg width="731pt" height="676pt"
 viewBox="0.00 0.00 731.00 676.00" xmlns="http://www.w3.org/2000/svg" xmlns:xlink="http://www.w3.org/1999/xlink">
<g id="graph0" class="graph" transform="scale(1 1) rotate(0) translate(4 672)">
<title>controllers_diagram</title>
<polygon fill="transparent" stroke="transparent" points="-4,4 -4,-672 727,-672 727,4 -4,4"/>
<!-- _diagram_info -->
<g id="node1" class="node">
<title>_diagram_info</title>
<text text-anchor="start" x="376" y="-111.6" font-family="Times,serif" font-size="13.00">Controllers diagram</text>
<text text-anchor="start" x="376" y="-97.6" font-family="Times,serif" font-size="13.00">Date: Nov 03 2021 &#45; 11:54</text>
<text text-anchor="start" x="376" y="-83.6" font-family="Times,serif" font-size="13.00">Migration version: 20211103141759</text>
<text text-anchor="start" x="376" y="-69.6" font-family="Times,serif" font-size="13.00">Generated by RailRoady 1.6.0</text>
<text text-anchor="start" x="376" y="-55.6" font-family="Times,serif" font-size="13.00">http://railroady.prestonlee.com</text>
</g>
<!-- ApplicationController -->
<g id="node2" class="node">
<title>ApplicationController</title>
<path fill="none" stroke="black" d="M460,-400.5C460,-400.5 630,-400.5 630,-400.5 636,-400.5 642,-406.5 642,-412.5 642,-412.5 642,-496.5 642,-496.5 642,-502.5 636,-508.5 630,-508.5 630,-508.5 460,-508.5 460,-508.5 454,-508.5 448,-502.5 448,-496.5 448,-496.5 448,-412.5 448,-412.5 448,-406.5 454,-400.5 460,-400.5"/>
<text text-anchor="middle" x="545" y="-493.3" font-family="Times,serif" font-size="14.00">ApplicationController</text>
<polyline fill="none" stroke="black" points="448,-485.5 642,-485.5 "/>
<polyline fill="none" stroke="black" points="448,-461.5 642,-461.5 "/>
<text text-anchor="start" x="456" y="-446.3" font-family="Times,serif" font-size="14.00">configure_permitted_parameters</text>
<polyline fill="none" stroke="black" points="448,-438.5 642,-438.5 "/>
<text text-anchor="start" x="456" y="-423.3" font-family="Times,serif" font-size="14.00">_layout</text>
<text text-anchor="start" x="456" y="-408.3" font-family="Times,serif" font-size="14.00">creator_not_authorized</text>
</g>
<!-- PagesController -->
<g id="node3" class="node">
<title>PagesController</title>
<path fill="none" stroke="black" d="M12,-416.5C12,-416.5 92,-416.5 92,-416.5 98,-416.5 104,-422.5 104,-428.5 104,-428.5 104,-497.5 104,-497.5 104,-503.5 98,-509.5 92,-509.5 92,-509.5 12,-509.5 12,-509.5 6,-509.5 0,-503.5 0,-497.5 0,-497.5 0,-428.5 0,-428.5 0,-422.5 6,-416.5 12,-416.5"/>
<text text-anchor="middle" x="52" y="-494.3" font-family="Times,serif" font-size="14.00">PagesController</text>
<polyline fill="none" stroke="black" points="0,-486.5 104,-486.5 "/>
<text text-anchor="start" x="8" y="-471.3" font-family="Times,serif" font-size="14.00">index</text>
<polyline fill="none" stroke="black" points="0,-463.5 104,-463.5 "/>
<polyline fill="none" stroke="black" points="0,-439.5 104,-439.5 "/>
<text text-anchor="start" x="8" y="-424.3" font-family="Times,serif" font-size="14.00">_layout</text>
</g>
<!-- FrontendController -->
<g id="node4" class="node">
<title>FrontendController</title>
<path fill="none" stroke="black" d="M124,-544.5C124,-544.5 221,-544.5 221,-544.5 227,-544.5 233,-550.5 233,-556.5 233,-556.5 233,-625.5 233,-625.5 233,-631.5 227,-637.5 221,-637.5 221,-637.5 124,-637.5 124,-637.5 118,-637.5 112,-631.5 112,-625.5 112,-625.5 112,-556.5 112,-556.5 112,-550.5 118,-544.5 124,-544.5"/>
<text text-anchor="middle" x="172.5" y="-622.3" font-family="Times,serif" font-size="14.00">FrontendController</text>
<polyline fill="none" stroke="black" points="112,-614.5 233,-614.5 "/>
<text text-anchor="start" x="120" y="-599.3" font-family="Times,serif" font-size="14.00">live</text>
<polyline fill="none" stroke="black" points="112,-591.5 233,-591.5 "/>
<polyline fill="none" stroke="black" points="112,-567.5 233,-567.5 "/>
<text text-anchor="start" x="120" y="-552.3" font-family="Times,serif" font-size="14.00">_layout</text>
</g>
<!-- EventController -->
<g id="node5" class="node">
<title>EventController</title>
<path fill="none" stroke="black" d="M92,-176.5C92,-176.5 184,-176.5 184,-176.5 190,-176.5 196,-182.5 196,-188.5 196,-188.5 196,-332.5 196,-332.5 196,-338.5 190,-344.5 184,-344.5 184,-344.5 92,-344.5 92,-344.5 86,-344.5 80,-338.5 80,-332.5 80,-332.5 80,-188.5 80,-188.5 80,-182.5 86,-176.5 92,-176.5"/>
<text text-anchor="middle" x="138" y="-329.3" font-family="Times,serif" font-size="14.00">EventController</text>
<polyline fill="none" stroke="black" points="80,-321.5 196,-321.5 "/>
<text text-anchor="start" x="88" y="-306.3" font-family="Times,serif" font-size="14.00">create</text>
<text text-anchor="start" x="88" y="-291.3" font-family="Times,serif" font-size="14.00">new</text>
<text text-anchor="start" x="88" y="-276.3" font-family="Times,serif" font-size="14.00">show</text>
<text text-anchor="start" x="88" y="-261.3" font-family="Times,serif" font-size="14.00">update</text>
<polyline fill="none" stroke="black" points="80,-253.5 196,-253.5 "/>
<polyline fill="none" stroke="black" points="80,-229.5 196,-229.5 "/>
<text text-anchor="start" x="88" y="-214.3" font-family="Times,serif" font-size="14.00">_layout</text>
<text text-anchor="start" x="88" y="-199.3" font-family="Times,serif" font-size="14.00">param_id</text>
<text text-anchor="start" x="88" y="-184.3" font-family="Times,serif" font-size="14.00">permitted_params</text>
</g>
<!-- LinksController -->
<g id="node6" class="node">
<title>LinksController</title>
<path fill="none" stroke="black" d="M380,-160.5C380,-160.5 459,-160.5 459,-160.5 465,-160.5 471,-166.5 471,-172.5 471,-172.5 471,-361.5 471,-361.5 471,-367.5 465,-373.5 459,-373.5 459,-373.5 380,-373.5 380,-373.5 374,-373.5 368,-367.5 368,-361.5 368,-361.5 368,-172.5 368,-172.5 368,-166.5 374,-160.5 380,-160.5"/>
<text text-anchor="middle" x="419.5" y="-358.3" font-family="Times,serif" font-size="14.00">LinksController</text>
<polyline fill="none" stroke="black" points="368,-350.5 471,-350.5 "/>
<text text-anchor="start" x="376" y="-335.3" font-family="Times,serif" font-size="14.00">create</text>
<text text-anchor="start" x="376" y="-320.3" font-family="Times,serif" font-size="14.00">destroy</text>
<text text-anchor="start" x="376" y="-305.3" font-family="Times,serif" font-size="14.00">edit</text>
<text text-anchor="start" x="376" y="-290.3" font-family="Times,serif" font-size="14.00">index</text>
<text text-anchor="start" x="376" y="-275.3" font-family="Times,serif" font-size="14.00">new</text>
<text text-anchor="start" x="376" y="-260.3" font-family="Times,serif" font-size="14.00">show</text>
<text text-anchor="start" x="376" y="-245.3" font-family="Times,serif" font-size="14.00">update</text>
<polyline fill="none" stroke="black" points="368,-237.5 471,-237.5 "/>
<polyline fill="none" stroke="black" points="368,-213.5 471,-213.5 "/>
<text text-anchor="start" x="376" y="-198.3" font-family="Times,serif" font-size="14.00">_layout</text>
<text text-anchor="start" x="376" y="-183.3" font-family="Times,serif" font-size="14.00">link_params</text>
<text text-anchor="start" x="376" y="-168.3" font-family="Times,serif" font-size="14.00">set_link</text>
</g>
<!-- CreatorsController -->
<g id="node7" class="node">
<title>CreatorsController</title>
<path fill="none" stroke="black" d="M236,-128.5C236,-128.5 330,-128.5 330,-128.5 336,-128.5 342,-134.5 342,-140.5 342,-140.5 342,-329.5 342,-329.5 342,-335.5 336,-341.5 330,-341.5 330,-341.5 236,-341.5 236,-341.5 230,-341.5 224,-335.5 224,-329.5 224,-329.5 224,-140.5 224,-140.5 224,-134.5 230,-128.5 236,-128.5"/>
<text text-anchor="middle" x="283" y="-326.3" font-family="Times,serif" font-size="14.00">CreatorsController</text>
<polyline fill="none" stroke="black" points="224,-318.5 342,-318.5 "/>
<text text-anchor="start" x="232" y="-303.3" font-family="Times,serif" font-size="14.00">create</text>
<text text-anchor="start" x="232" y="-288.3" font-family="Times,serif" font-size="14.00">destroy</text>
<text text-anchor="start" x="232" y="-273.3" font-family="Times,serif" font-size="14.00">edit</text>
<text text-anchor="start" x="232" y="-258.3" font-family="Times,serif" font-size="14.00">index</text>
<text text-anchor="start" x="232" y="-243.3" font-family="Times,serif" font-size="14.00">new</text>
<text text-anchor="start" x="232" y="-228.3" font-family="Times,serif" font-size="14.00">show</text>
<text text-anchor="start" x="232" y="-213.3" font-family="Times,serif" font-size="14.00">update</text>
<polyline fill="none" stroke="black" points="224,-205.5 342,-205.5 "/>
<polyline fill="none" stroke="black" points="224,-181.5 342,-181.5 "/>
<text text-anchor="start" x="232" y="-166.3" font-family="Times,serif" font-size="14.00">_layout</text>
<text text-anchor="start" x="232" y="-151.3" font-family="Times,serif" font-size="14.00">creator_params</text>
<text text-anchor="start" x="232" y="-136.3" font-family="Times,serif" font-size="14.00">set_creator</text>
</g>
<!-- Creators::SessionsController -->
<g id="node8" class="node">
<title>Creators::SessionsController</title>
<path fill="none" stroke="black" d="M60,-0.5C60,-0.5 208,-0.5 208,-0.5 214,-0.5 220,-6.5 220,-12.5 220,-12.5 220,-82.5 220,-82.5 220,-88.5 214,-94.5 208,-94.5 208,-94.5 60,-94.5 60,-94.5 54,-94.5 48,-88.5 48,-82.5 48,-82.5 48,-12.5 48,-12.5 48,-6.5 54,-0.5 60,-0.5"/>
<text text-anchor="middle" x="134" y="-79.3" font-family="Times,serif" font-size="14.00">Creators::SessionsController</text>
<polyline fill="none" stroke="black" points="48,-71.5 220,-71.5 "/>
<polyline fill="none" stroke="black" points="48,-47.5 220,-47.5 "/>
<polyline fill="none" stroke="black" points="48,-23.5 220,-23.5 "/>
<text text-anchor="start" x="56" y="-8.3" font-family="Times,serif" font-size="14.00">_layout</text>
</g>
<!-- Creators::RegistrationsController -->
<g id="node9" class="node">
<title>Creators::RegistrationsController</title>
<path fill="none" stroke="black" d="M156,-384.5C156,-384.5 329,-384.5 329,-384.5 335,-384.5 341,-390.5 341,-396.5 341,-396.5 341,-496.5 341,-496.5 341,-502.5 335,-508.5 329,-508.5 329,-508.5 156,-508.5 156,-508.5 150,-508.5 144,-502.5 144,-496.5 144,-496.5 144,-396.5 144,-396.5 144,-390.5 150,-384.5 156,-384.5"/>
<text text-anchor="middle" x="242.5" y="-493.3" font-family="Times,serif" font-size="14.00">Creators::RegistrationsController</text>
<polyline fill="none" stroke="black" points="144,-485.5 341,-485.5 "/>
<polyline fill="none" stroke="black" points="144,-461.5 341,-461.5 "/>
<polyline fill="none" stroke="black" points="144,-437.5 341,-437.5 "/>
<text text-anchor="start" x="152" y="-422.3" font-family="Times,serif" font-size="14.00">_layout</text>
<text text-anchor="start" x="152" y="-407.3" font-family="Times,serif" font-size="14.00">account_update_params</text>
<text text-anchor="start" x="152" y="-392.3" font-family="Times,serif" font-size="14.00">sign_up_params</text>
</g>
<!-- Api::ClipController -->
<g id="node10" class="node">
<title>Api::ClipController</title>
<path fill="none" stroke="black" d="M508,-160.5C508,-160.5 626,-160.5 626,-160.5 632,-160.5 638,-166.5 638,-172.5 638,-172.5 638,-301.5 638,-301.5 638,-307.5 632,-313.5 626,-313.5 626,-313.5 508,-313.5 508,-313.5 502,-313.5 496,-307.5 496,-301.5 496,-301.5 496,-172.5 496,-172.5 496,-166.5 502,-160.5 508,-160.5"/>
<text text-anchor="middle" x="567" y="-298.3" font-family="Times,serif" font-size="14.00">Api::ClipController</text>
<polyline fill="none" stroke="black" points="496,-290.5 638,-290.5 "/>
<text text-anchor="start" x="504" y="-275.3" font-family="Times,serif" font-size="14.00">create</text>
<text text-anchor="start" x="504" y="-260.3" font-family="Times,serif" font-size="14.00">show</text>
<text text-anchor="start" x="504" y="-245.3" font-family="Times,serif" font-size="14.00">update</text>
<polyline fill="none" stroke="black" points="496,-237.5 638,-237.5 "/>
<polyline fill="none" stroke="black" points="496,-213.5 638,-213.5 "/>
<text text-anchor="start" x="504" y="-198.3" font-family="Times,serif" font-size="14.00">custom_stream_url</text>
<text text-anchor="start" x="504" y="-183.3" font-family="Times,serif" font-size="14.00">event_is_present</text>
<text text-anchor="start" x="504" y="-168.3" font-family="Times,serif" font-size="14.00">permit_update_params</text>
</g>
<!-- Api::EventController -->
<g id="node11" class="node">
<title>Api::EventController</title>
<path fill="none" stroke="black" d="M604,-544.5C604,-544.5 711,-544.5 711,-544.5 717,-544.5 723,-550.5 723,-556.5 723,-556.5 723,-655.5 723,-655.5 723,-661.5 717,-667.5 711,-667.5 711,-667.5 604,-667.5 604,-667.5 598,-667.5 592,-661.5 592,-655.5 592,-655.5 592,-556.5 592,-556.5 592,-550.5 598,-544.5 604,-544.5"/>
<text text-anchor="middle" x="657.5" y="-652.3" font-family="Times,serif" font-size="14.00">Api::EventController</text>
<polyline fill="none" stroke="black" points="592,-644.5 723,-644.5 "/>
<text text-anchor="start" x="600" y="-629.3" font-family="Times,serif" font-size="14.00">clips</text>
<text text-anchor="start" x="600" y="-614.3" font-family="Times,serif" font-size="14.00">show</text>
<polyline fill="none" stroke="black" points="592,-606.5 723,-606.5 "/>
<polyline fill="none" stroke="black" points="592,-582.5 723,-582.5 "/>
<text text-anchor="start" x="600" y="-567.3" font-family="Times,serif" font-size="14.00">custom_stream_url</text>
<text text-anchor="start" x="600" y="-552.3" font-family="Times,serif" font-size="14.00">event_is_present</text>
</g>
<!-- Api::AuthController -->
<g id="node12" class="node">
<title>Api::AuthController</title>
<path fill="none" stroke="black" d="M284,-544.5C284,-544.5 387,-544.5 387,-544.5 393,-544.5 399,-550.5 399,-556.5 399,-556.5 399,-641.5 399,-641.5 399,-647.5 393,-653.5 387,-653.5 387,-653.5 284,-653.5 284,-653.5 278,-653.5 272,-647.5 272,-641.5 272,-641.5 272,-556.5 272,-556.5 272,-550.5 278,-544.5 284,-544.5"/>
<text text-anchor="middle" x="335.5" y="-638.3" font-family="Times,serif" font-size="14.00">Api::AuthController</text>
<polyline fill="none" stroke="black" points="272,-630.5 399,-630.5 "/>
<polyline fill="none" stroke="black" points="272,-606.5 399,-606.5 "/>
<text text-anchor="start" x="280" y="-591.3" font-family="Times,serif" font-size="14.00">current_event</text>
<text text-anchor="start" x="280" y="-576.3" font-family="Times,serif" font-size="14.00">current_live_id</text>
<polyline fill="none" stroke="black" points="272,-568.5 399,-568.5 "/>
</g>
<!-- DashboardController -->
<g id="node13" class="node">
<title>DashboardController</title>
<path fill="none" stroke="black" d="M444,-544.5C444,-544.5 551,-544.5 551,-544.5 557,-544.5 563,-550.5 563,-556.5 563,-556.5 563,-625.5 563,-625.5 563,-631.5 557,-637.5 551,-637.5 551,-637.5 444,-637.5 444,-637.5 438,-637.5 432,-631.5 432,-625.5 432,-625.5 432,-556.5 432,-556.5 432,-550.5 438,-544.5 444,-544.5"/>
<text text-anchor="middle" x="497.5" y="-622.3" font-family="Times,serif" font-size="14.00">DashboardController</text>
<polyline fill="none" stroke="black" points="432,-614.5 563,-614.5 "/>
<text text-anchor="start" x="440" y="-599.3" font-family="Times,serif" font-size="14.00">index</text>
<polyline fill="none" stroke="black" points="432,-591.5 563,-591.5 "/>
<polyline fill="none" stroke="black" points="432,-567.5 563,-567.5 "/>
<text text-anchor="start" x="440" y="-552.3" font-family="Times,serif" font-size="14.00">_layout</text>
</g>
</g>
</svg>
