<?xml version="1.0" encoding="UTF-8" standalone="no"?>
<!DOCTYPE svg PUBLIC "-//W3C//DTD SVG 1.1//EN"
 "http://www.w3.org/Graphics/SVG/1.1/DTD/svg11.dtd">
<!-- Generated by graphviz version 2.44.1 (20200629.0846)
 -->
<!-- Title: controllers_diagram Pages: 1 -->
<svg width="788pt" height="676pt"
 viewBox="0.00 0.00 788.00 676.00" xmlns="http://www.w3.org/2000/svg" xmlns:xlink="http://www.w3.org/1999/xlink">
<g id="graph0" class="graph" transform="scale(1 1) rotate(0) translate(4 672)">
<title>controllers_diagram</title>
<polygon fill="transparent" stroke="transparent" points="-4,4 -4,-672 784,-672 784,4 -4,4"/>
<!-- _diagram_info -->
<g id="node1" class="node">
<title>_diagram_info</title>
<text text-anchor="start" x="392" y="-111.6" font-family="Times,serif" font-size="13.00">Controllers diagram</text>
<text text-anchor="start" x="392" y="-97.6" font-family="Times,serif" font-size="13.00">Date: Nov 03 2021 &#45; 14:42</text>
<text text-anchor="start" x="392" y="-83.6" font-family="Times,serif" font-size="13.00">Migration version: 20211103141759</text>
<text text-anchor="start" x="392" y="-69.6" font-family="Times,serif" font-size="13.00">Generated by RailRoady 1.6.0</text>
<text text-anchor="start" x="392" y="-55.6" font-family="Times,serif" font-size="13.00">http://railroady.prestonlee.com</text>
</g>
<!-- ApplicationController -->
<g id="node2" class="node">
<title>ApplicationController</title>
<path fill="none" stroke="black" d="M476,-400.5C476,-400.5 646,-400.5 646,-400.5 652,-400.5 658,-406.5 658,-412.5 658,-412.5 658,-496.5 658,-496.5 658,-502.5 652,-508.5 646,-508.5 646,-508.5 476,-508.5 476,-508.5 470,-508.5 464,-502.5 464,-496.5 464,-496.5 464,-412.5 464,-412.5 464,-406.5 470,-400.5 476,-400.5"/>
<text text-anchor="middle" x="561" y="-493.3" font-family="Times,serif" font-size="14.00">ApplicationController</text>
<polyline fill="none" stroke="black" points="464,-485.5 658,-485.5 "/>
<polyline fill="none" stroke="black" points="464,-461.5 658,-461.5 "/>
<text text-anchor="start" x="472" y="-446.3" font-family="Times,serif" font-size="14.00">configure_permitted_parameters</text>
<polyline fill="none" stroke="black" points="464,-438.5 658,-438.5 "/>
<text text-anchor="start" x="472" y="-423.3" font-family="Times,serif" font-size="14.00">_layout</text>
<text text-anchor="start" x="472" y="-408.3" font-family="Times,serif" font-size="14.00">creator_not_authorized</text>
</g>
<!-- PagesController -->
<g id="node3" class="node">
<title>PagesController</title>
<path fill="none" stroke="black" d="M252,-0.5C252,-0.5 332,-0.5 332,-0.5 338,-0.5 344,-6.5 344,-12.5 344,-12.5 344,-81.5 344,-81.5 344,-87.5 338,-93.5 332,-93.5 332,-93.5 252,-93.5 252,-93.5 246,-93.5 240,-87.5 240,-81.5 240,-81.5 240,-12.5 240,-12.5 240,-6.5 246,-0.5 252,-0.5"/>
<text text-anchor="middle" x="292" y="-78.3" font-family="Times,serif" font-size="14.00">PagesController</text>
<polyline fill="none" stroke="black" points="240,-70.5 344,-70.5 "/>
<text text-anchor="start" x="248" y="-55.3" font-family="Times,serif" font-size="14.00">index</text>
<polyline fill="none" stroke="black" points="240,-47.5 344,-47.5 "/>
<polyline fill="none" stroke="black" points="240,-23.5 344,-23.5 "/>
<text text-anchor="start" x="248" y="-8.3" font-family="Times,serif" font-size="14.00">_layout</text>
</g>
<!-- FrontendController -->
<g id="node4" class="node">
<title>FrontendController</title>
<path fill="none" stroke="black" d="M12,-416.5C12,-416.5 109,-416.5 109,-416.5 115,-416.5 121,-422.5 121,-428.5 121,-428.5 121,-497.5 121,-497.5 121,-503.5 115,-509.5 109,-509.5 109,-509.5 12,-509.5 12,-509.5 6,-509.5 0,-503.5 0,-497.5 0,-497.5 0,-428.5 0,-428.5 0,-422.5 6,-416.5 12,-416.5"/>
<text text-anchor="middle" x="60.5" y="-494.3" font-family="Times,serif" font-size="14.00">FrontendController</text>
<polyline fill="none" stroke="black" points="0,-486.5 121,-486.5 "/>
<text text-anchor="start" x="8" y="-471.3" font-family="Times,serif" font-size="14.00">live</text>
<polyline fill="none" stroke="black" points="0,-463.5 121,-463.5 "/>
<polyline fill="none" stroke="black" points="0,-439.5 121,-439.5 "/>
<text text-anchor="start" x="8" y="-424.3" font-family="Times,serif" font-size="14.00">_layout</text>
</g>
<!-- EventController -->
<g id="node5" class="node">
<title>EventController</title>
<path fill="none" stroke="black" d="M108,-176.5C108,-176.5 200,-176.5 200,-176.5 206,-176.5 212,-182.5 212,-188.5 212,-188.5 212,-332.5 212,-332.5 212,-338.5 206,-344.5 200,-344.5 200,-344.5 108,-344.5 108,-344.5 102,-344.5 96,-338.5 96,-332.5 96,-332.5 96,-188.5 96,-188.5 96,-182.5 102,-176.5 108,-176.5"/>
<text text-anchor="middle" x="154" y="-329.3" font-family="Times,serif" font-size="14.00">EventController</text>
<polyline fill="none" stroke="black" points="96,-321.5 212,-321.5 "/>
<text text-anchor="start" x="104" y="-306.3" font-family="Times,serif" font-size="14.00">create</text>
<text text-anchor="start" x="104" y="-291.3" font-family="Times,serif" font-size="14.00">new</text>
<text text-anchor="start" x="104" y="-276.3" font-family="Times,serif" font-size="14.00">show</text>
<text text-anchor="start" x="104" y="-261.3" font-family="Times,serif" font-size="14.00">update</text>
<polyline fill="none" stroke="black" points="96,-253.5 212,-253.5 "/>
<polyline fill="none" stroke="black" points="96,-229.5 212,-229.5 "/>
<text text-anchor="start" x="104" y="-214.3" font-family="Times,serif" font-size="14.00">_layout</text>
<text text-anchor="start" x="104" y="-199.3" font-family="Times,serif" font-size="14.00">param_id</text>
<text text-anchor="start" x="104" y="-184.3" font-family="Times,serif" font-size="14.00">permitted_params</text>
</g>
<!-- LinksController -->
<g id="node6" class="node">
<title>LinksController</title>
<path fill="none" stroke="black" d="M396,-160.5C396,-160.5 475,-160.5 475,-160.5 481,-160.5 487,-166.5 487,-172.5 487,-172.5 487,-361.5 487,-361.5 487,-367.5 481,-373.5 475,-373.5 475,-373.5 396,-373.5 396,-373.5 390,-373.5 384,-367.5 384,-361.5 384,-361.5 384,-172.5 384,-172.5 384,-166.5 390,-160.5 396,-160.5"/>
<text text-anchor="middle" x="435.5" y="-358.3" font-family="Times,serif" font-size="14.00">LinksController</text>
<polyline fill="none" stroke="black" points="384,-350.5 487,-350.5 "/>
<text text-anchor="start" x="392" y="-335.3" font-family="Times,serif" font-size="14.00">create</text>
<text text-anchor="start" x="392" y="-320.3" font-family="Times,serif" font-size="14.00">destroy</text>
<text text-anchor="start" x="392" y="-305.3" font-family="Times,serif" font-size="14.00">edit</text>
<text text-anchor="start" x="392" y="-290.3" font-family="Times,serif" font-size="14.00">index</text>
<text text-anchor="start" x="392" y="-275.3" font-family="Times,serif" font-size="14.00">new</text>
<text text-anchor="start" x="392" y="-260.3" font-family="Times,serif" font-size="14.00">show</text>
<text text-anchor="start" x="392" y="-245.3" font-family="Times,serif" font-size="14.00">update</text>
<polyline fill="none" stroke="black" points="384,-237.5 487,-237.5 "/>
<polyline fill="none" stroke="black" points="384,-213.5 487,-213.5 "/>
<text text-anchor="start" x="392" y="-198.3" font-family="Times,serif" font-size="14.00">_layout</text>
<text text-anchor="start" x="392" y="-183.3" font-family="Times,serif" font-size="14.00">link_params</text>
<text text-anchor="start" x="392" y="-168.3" font-family="Times,serif" font-size="14.00">set_link</text>
</g>
<!-- CreatorsController -->
<g id="node7" class="node">
<title>CreatorsController</title>
<path fill="none" stroke="black" d="M252,-128.5C252,-128.5 346,-128.5 346,-128.5 352,-128.5 358,-134.5 358,-140.5 358,-140.5 358,-329.5 358,-329.5 358,-335.5 352,-341.5 346,-341.5 346,-341.5 252,-341.5 252,-341.5 246,-341.5 240,-335.5 240,-329.5 240,-329.5 240,-140.5 240,-140.5 240,-134.5 246,-128.5 252,-128.5"/>
<text text-anchor="middle" x="299" y="-326.3" font-family="Times,serif" font-size="14.00">CreatorsController</text>
<polyline fill="none" stroke="black" points="240,-318.5 358,-318.5 "/>
<text text-anchor="start" x="248" y="-303.3" font-family="Times,serif" font-size="14.00">create</text>
<text text-anchor="start" x="248" y="-288.3" font-family="Times,serif" font-size="14.00">destroy</text>
<text text-anchor="start" x="248" y="-273.3" font-family="Times,serif" font-size="14.00">edit</text>
<text text-anchor="start" x="248" y="-258.3" font-family="Times,serif" font-size="14.00">index</text>
<text text-anchor="start" x="248" y="-243.3" font-family="Times,serif" font-size="14.00">new</text>
<text text-anchor="start" x="248" y="-228.3" font-family="Times,serif" font-size="14.00">show</text>
<text text-anchor="start" x="248" y="-213.3" font-family="Times,serif" font-size="14.00">update</text>
<polyline fill="none" stroke="black" points="240,-205.5 358,-205.5 "/>
<polyline fill="none" stroke="black" points="240,-181.5 358,-181.5 "/>
<text text-anchor="start" x="248" y="-166.3" font-family="Times,serif" font-size="14.00">_layout</text>
<text text-anchor="start" x="248" y="-151.3" font-family="Times,serif" font-size="14.00">creator_params</text>
<text text-anchor="start" x="248" y="-136.3" font-family="Times,serif" font-size="14.00">set_creator</text>
</g>
<!-- Creators::SessionsController -->
<g id="node8" class="node">
<title>Creators::SessionsController</title>
<path fill="none" stroke="black" d="M620,-544.5C620,-544.5 768,-544.5 768,-544.5 774,-544.5 780,-550.5 780,-556.5 780,-556.5 780,-626.5 780,-626.5 780,-632.5 774,-638.5 768,-638.5 768,-638.5 620,-638.5 620,-638.5 614,-638.5 608,-632.5 608,-626.5 608,-626.5 608,-556.5 608,-556.5 608,-550.5 614,-544.5 620,-544.5"/>
<text text-anchor="middle" x="694" y="-623.3" font-family="Times,serif" font-size="14.00">Creators::SessionsController</text>
<polyline fill="none" stroke="black" points="608,-615.5 780,-615.5 "/>
<polyline fill="none" stroke="black" points="608,-591.5 780,-591.5 "/>
<polyline fill="none" stroke="black" points="608,-567.5 780,-567.5 "/>
<text text-anchor="start" x="616" y="-552.3" font-family="Times,serif" font-size="14.00">_layout</text>
</g>
<!-- Creators::RegistrationsController -->
<g id="node9" class="node">
<title>Creators::RegistrationsController</title>
<path fill="none" stroke="black" d="M172,-384.5C172,-384.5 345,-384.5 345,-384.5 351,-384.5 357,-390.5 357,-396.5 357,-396.5 357,-496.5 357,-496.5 357,-502.5 351,-508.5 345,-508.5 345,-508.5 172,-508.5 172,-508.5 166,-508.5 160,-502.5 160,-496.5 160,-496.5 160,-396.5 160,-396.5 160,-390.5 166,-384.5 172,-384.5"/>
<text text-anchor="middle" x="258.5" y="-493.3" font-family="Times,serif" font-size="14.00">Creators::RegistrationsController</text>
<polyline fill="none" stroke="black" points="160,-485.5 357,-485.5 "/>
<polyline fill="none" stroke="black" points="160,-461.5 357,-461.5 "/>
<polyline fill="none" stroke="black" points="160,-437.5 357,-437.5 "/>
<text text-anchor="start" x="168" y="-422.3" font-family="Times,serif" font-size="14.00">_layout</text>
<text text-anchor="start" x="168" y="-407.3" font-family="Times,serif" font-size="14.00">account_update_params</text>
<text text-anchor="start" x="168" y="-392.3" font-family="Times,serif" font-size="14.00">sign_up_params</text>
</g>
<!-- Api::CreatorController -->
<g id="node10" class="node">
<title>Api::CreatorController</title>
<path fill="none" stroke="black" d="M76,-0.5C76,-0.5 194,-0.5 194,-0.5 200,-0.5 206,-6.5 206,-12.5 206,-12.5 206,-126.5 206,-126.5 206,-132.5 200,-138.5 194,-138.5 194,-138.5 76,-138.5 76,-138.5 70,-138.5 64,-132.5 64,-126.5 64,-126.5 64,-12.5 64,-12.5 64,-6.5 70,-0.5 76,-0.5"/>
<text text-anchor="middle" x="135" y="-123.3" font-family="Times,serif" font-size="14.00">Api::CreatorController</text>
<polyline fill="none" stroke="black" points="64,-115.5 206,-115.5 "/>
<text text-anchor="start" x="72" y="-100.3" font-family="Times,serif" font-size="14.00">create</text>
<text text-anchor="start" x="72" y="-85.3" font-family="Times,serif" font-size="14.00">show</text>
<text text-anchor="start" x="72" y="-70.3" font-family="Times,serif" font-size="14.00">update</text>
<polyline fill="none" stroke="black" points="64,-62.5 206,-62.5 "/>
<polyline fill="none" stroke="black" points="64,-38.5 206,-38.5 "/>
<text text-anchor="start" x="72" y="-23.3" font-family="Times,serif" font-size="14.00">event_is_present</text>
<text text-anchor="start" x="72" y="-8.3" font-family="Times,serif" font-size="14.00">permit_update_params</text>
</g>
<!-- Api::ClipController -->
<g id="node11" class="node">
<title>Api::ClipController</title>
<path fill="none" stroke="black" d="M524,-160.5C524,-160.5 642,-160.5 642,-160.5 648,-160.5 654,-166.5 654,-172.5 654,-172.5 654,-301.5 654,-301.5 654,-307.5 648,-313.5 642,-313.5 642,-313.5 524,-313.5 524,-313.5 518,-313.5 512,-307.5 512,-301.5 512,-301.5 512,-172.5 512,-172.5 512,-166.5 518,-160.5 524,-160.5"/>
<text text-anchor="middle" x="583" y="-298.3" font-family="Times,serif" font-size="14.00">Api::ClipController</text>
<polyline fill="none" stroke="black" points="512,-290.5 654,-290.5 "/>
<text text-anchor="start" x="520" y="-275.3" font-family="Times,serif" font-size="14.00">create</text>
<text text-anchor="start" x="520" y="-260.3" font-family="Times,serif" font-size="14.00">show</text>
<text text-anchor="start" x="520" y="-245.3" font-family="Times,serif" font-size="14.00">update</text>
<polyline fill="none" stroke="black" points="512,-237.5 654,-237.5 "/>
<polyline fill="none" stroke="black" points="512,-213.5 654,-213.5 "/>
<text text-anchor="start" x="520" y="-198.3" font-family="Times,serif" font-size="14.00">custom_stream_url</text>
<text text-anchor="start" x="520" y="-183.3" font-family="Times,serif" font-size="14.00">event_is_present</text>
<text text-anchor="start" x="520" y="-168.3" font-family="Times,serif" font-size="14.00">permit_update_params</text>
</g>
<!-- Api::EventController -->
<g id="node12" class="node">
<title>Api::EventController</title>
<path fill="none" stroke="black" d="M460,-544.5C460,-544.5 567,-544.5 567,-544.5 573,-544.5 579,-550.5 579,-556.5 579,-556.5 579,-655.5 579,-655.5 579,-661.5 573,-667.5 567,-667.5 567,-667.5 460,-667.5 460,-667.5 454,-667.5 448,-661.5 448,-655.5 448,-655.5 448,-556.5 448,-556.5 448,-550.5 454,-544.5 460,-544.5"/>
<text text-anchor="middle" x="513.5" y="-652.3" font-family="Times,serif" font-size="14.00">Api::EventController</text>
<polyline fill="none" stroke="black" points="448,-644.5 579,-644.5 "/>
<text text-anchor="start" x="456" y="-629.3" font-family="Times,serif" font-size="14.00">clips</text>
<text text-anchor="start" x="456" y="-614.3" font-family="Times,serif" font-size="14.00">show</text>
<polyline fill="none" stroke="black" points="448,-606.5 579,-606.5 "/>
<polyline fill="none" stroke="black" points="448,-582.5 579,-582.5 "/>
<text text-anchor="start" x="456" y="-567.3" font-family="Times,serif" font-size="14.00">custom_stream_url</text>
<text text-anchor="start" x="456" y="-552.3" font-family="Times,serif" font-size="14.00">event_is_present</text>
</g>
<!-- Api::AuthController -->
<g id="node13" class="node">
<title>Api::AuthController</title>
<path fill="none" stroke="black" d="M140,-544.5C140,-544.5 243,-544.5 243,-544.5 249,-544.5 255,-550.5 255,-556.5 255,-556.5 255,-641.5 255,-641.5 255,-647.5 249,-653.5 243,-653.5 243,-653.5 140,-653.5 140,-653.5 134,-653.5 128,-647.5 128,-641.5 128,-641.5 128,-556.5 128,-556.5 128,-550.5 134,-544.5 140,-544.5"/>
<text text-anchor="middle" x="191.5" y="-638.3" font-family="Times,serif" font-size="14.00">Api::AuthController</text>
<polyline fill="none" stroke="black" points="128,-630.5 255,-630.5 "/>
<polyline fill="none" stroke="black" points="128,-606.5 255,-606.5 "/>
<text text-anchor="start" x="136" y="-591.3" font-family="Times,serif" font-size="14.00">current_event</text>
<text text-anchor="start" x="136" y="-576.3" font-family="Times,serif" font-size="14.00">current_live_id</text>
<polyline fill="none" stroke="black" points="128,-568.5 255,-568.5 "/>
</g>
<!-- DashboardController -->
<g id="node14" class="node">
<title>DashboardController</title>
<path fill="none" stroke="black" d="M300,-544.5C300,-544.5 407,-544.5 407,-544.5 413,-544.5 419,-550.5 419,-556.5 419,-556.5 419,-625.5 419,-625.5 419,-631.5 413,-637.5 407,-637.5 407,-637.5 300,-637.5 300,-637.5 294,-637.5 288,-631.5 288,-625.5 288,-625.5 288,-556.5 288,-556.5 288,-550.5 294,-544.5 300,-544.5"/>
<text text-anchor="middle" x="353.5" y="-622.3" font-family="Times,serif" font-size="14.00">DashboardController</text>
<polyline fill="none" stroke="black" points="288,-614.5 419,-614.5 "/>
<text text-anchor="start" x="296" y="-599.3" font-family="Times,serif" font-size="14.00">index</text>
<polyline fill="none" stroke="black" points="288,-591.5 419,-591.5 "/>
<polyline fill="none" stroke="black" points="288,-567.5 419,-567.5 "/>
<text text-anchor="start" x="296" y="-552.3" font-family="Times,serif" font-size="14.00">_layout</text>
</g>
</g>
</svg>
