<?xml version="1.0" encoding="UTF-8" standalone="no"?>
<!DOCTYPE svg PUBLIC "-//W3C//DTD SVG 1.1//EN"
 "http://www.w3.org/Graphics/SVG/1.1/DTD/svg11.dtd">
<!-- Generated by graphviz version 2.44.1 (20200629.0846)
 -->
<!-- Title: models_diagram Pages: 1 -->
<svg width="1706pt" height="555pt"
 viewBox="0.00 0.00 1706.00 555.00" xmlns="http://www.w3.org/2000/svg" xmlns:xlink="http://www.w3.org/1999/xlink">
<g id="graph0" class="graph" transform="scale(1 1) rotate(0) translate(4 551)">
<title>models_diagram</title>
<polygon fill="transparent" stroke="transparent" points="-4,4 -4,-551 1702,-551 1702,4 -4,4"/>
<!-- _diagram_info -->
<g id="node1" class="node">
<title>_diagram_info</title>
<text text-anchor="start" x="170" y="-458.1" font-family="Times,serif" font-size="13.00">Models diagram</text>
<text text-anchor="start" x="170" y="-444.1" font-family="Times,serif" font-size="13.00">Date: Nov 03 2021 &#45; 14:42</text>
<text text-anchor="start" x="170" y="-430.1" font-family="Times,serif" font-size="13.00">Migration version: 20211103141759</text>
<text text-anchor="start" x="170" y="-416.1" font-family="Times,serif" font-size="13.00">Generated by RailRoady 1.6.0</text>
<text text-anchor="start" x="170" y="-402.1" font-family="Times,serif" font-size="13.00">http://railroady.prestonlee.com</text>
</g>
<!-- Creator -->
<g id="node2" class="node">
<title>Creator</title>
<path fill="none" stroke="black" d="M404.5,-320.5C404.5,-320.5 693.5,-320.5 693.5,-320.5 699.5,-320.5 705.5,-326.5 705.5,-332.5 705.5,-332.5 705.5,-534.5 705.5,-534.5 705.5,-540.5 699.5,-546.5 693.5,-546.5 693.5,-546.5 404.5,-546.5 404.5,-546.5 398.5,-546.5 392.5,-540.5 392.5,-534.5 392.5,-534.5 392.5,-332.5 392.5,-332.5 392.5,-326.5 398.5,-320.5 404.5,-320.5"/>
<text text-anchor="middle" x="549" y="-531.3" font-family="Times,serif" font-size="14.00">Creator</text>
<polyline fill="none" stroke="black" points="392.5,-523.5 705.5,-523.5 "/>
<text text-anchor="start" x="400.5" y="-508.3" font-family="Times,serif" font-size="14.00">bio :text</text>
<text text-anchor="start" x="400.5" y="-493.3" font-family="Times,serif" font-size="14.00">email :character varying</text>
<text text-anchor="start" x="400.5" y="-478.3" font-family="Times,serif" font-size="14.00">username :character varying</text>
<text text-anchor="start" x="400.5" y="-463.3" font-family="Times,serif" font-size="14.00">encrypted_password :character varying</text>
<text text-anchor="start" x="400.5" y="-448.3" font-family="Times,serif" font-size="14.00">reset_password_token :character varying</text>
<text text-anchor="start" x="400.5" y="-433.3" font-family="Times,serif" font-size="14.00">reset_password_sent_at :timestamp without time zone</text>
<text text-anchor="start" x="400.5" y="-418.3" font-family="Times,serif" font-size="14.00">remember_created_at :timestamp without time zone</text>
<text text-anchor="start" x="400.5" y="-403.3" font-family="Times,serif" font-size="14.00">created_at :timestamp(6) without time zone</text>
<text text-anchor="start" x="400.5" y="-388.3" font-family="Times,serif" font-size="14.00">updated_at :timestamp(6) without time zone</text>
<text text-anchor="start" x="400.5" y="-373.3" font-family="Times,serif" font-size="14.00">name :character varying</text>
<text text-anchor="start" x="400.5" y="-358.3" font-family="Times,serif" font-size="14.00">slug :character varying</text>
<text text-anchor="start" x="400.5" y="-343.3" font-family="Times,serif" font-size="14.00">id :uuid</text>
<text text-anchor="start" x="400.5" y="-328.3" font-family="Times,serif" font-size="14.00">integer_id :bigint</text>
</g>
<!-- Link -->
<g id="node5" class="node">
<title>Link</title>
<path fill="none" stroke="black" d="M12,-117.5C12,-117.5 248,-117.5 248,-117.5 254,-117.5 260,-123.5 260,-129.5 260,-129.5 260,-226.5 260,-226.5 260,-232.5 254,-238.5 248,-238.5 248,-238.5 12,-238.5 12,-238.5 6,-238.5 0,-232.5 0,-226.5 0,-226.5 0,-129.5 0,-129.5 0,-123.5 6,-117.5 12,-117.5"/>
<text text-anchor="middle" x="130" y="-223.3" font-family="Times,serif" font-size="14.00">Link</text>
<polyline fill="none" stroke="black" points="0,-215.5 260,-215.5 "/>
<text text-anchor="start" x="8" y="-200.3" font-family="Times,serif" font-size="14.00">id :uuid</text>
<text text-anchor="start" x="8" y="-185.3" font-family="Times,serif" font-size="14.00">creator_id :uuid</text>
<text text-anchor="start" x="8" y="-170.3" font-family="Times,serif" font-size="14.00">url :character varying</text>
<text text-anchor="start" x="8" y="-155.3" font-family="Times,serif" font-size="14.00">title :character varying</text>
<text text-anchor="start" x="8" y="-140.3" font-family="Times,serif" font-size="14.00">created_at :timestamp(6) without time zone</text>
<text text-anchor="start" x="8" y="-125.3" font-family="Times,serif" font-size="14.00">updated_at :timestamp(6) without time zone</text>
</g>
<!-- Creator&#45;&gt;Link -->
<g id="edge6" class="edge">
<title>Creator&#45;&gt;Link</title>
<path fill="none" stroke="#d6d746" d="M382.66,-320.31C338.43,-305.01 320.8,-319.72 282,-302 251.36,-288.01 221.63,-266.38 196.72,-245.14"/>
<polygon fill="#d6d746" stroke="#d6d746" points="382.84,-320.38 390.6,-328.13 387.51,-322.15 392.19,-323.92 392.19,-323.92 392.19,-323.92 387.51,-322.15 393.78,-319.71 382.84,-320.38 382.84,-320.38"/>
<polygon fill="#d6d746" stroke="#d6d746" points="196.7,-245.12 192.09,-235.17 192.92,-241.85 189.14,-238.57 189.14,-238.57 189.14,-238.57 192.92,-241.85 186.19,-241.97 196.7,-245.12 196.7,-245.12"/>
</g>
<!-- Event -->
<g id="node6" class="node">
<title>Event</title>
<path fill="none" stroke="black" d="M1145,-87.5C1145,-87.5 1381,-87.5 1381,-87.5 1387,-87.5 1393,-93.5 1393,-99.5 1393,-99.5 1393,-256.5 1393,-256.5 1393,-262.5 1387,-268.5 1381,-268.5 1381,-268.5 1145,-268.5 1145,-268.5 1139,-268.5 1133,-262.5 1133,-256.5 1133,-256.5 1133,-99.5 1133,-99.5 1133,-93.5 1139,-87.5 1145,-87.5"/>
<text text-anchor="middle" x="1263" y="-253.3" font-family="Times,serif" font-size="14.00">Event</text>
<polyline fill="none" stroke="black" points="1133,-245.5 1393,-245.5 "/>
<text text-anchor="start" x="1141" y="-230.3" font-family="Times,serif" font-size="14.00">id :uuid</text>
<text text-anchor="start" x="1141" y="-215.3" font-family="Times,serif" font-size="14.00">live_id :character varying</text>
<text text-anchor="start" x="1141" y="-200.3" font-family="Times,serif" font-size="14.00">name :character varying</text>
<text text-anchor="start" x="1141" y="-185.3" font-family="Times,serif" font-size="14.00">image_url :character varying</text>
<text text-anchor="start" x="1141" y="-170.3" font-family="Times,serif" font-size="14.00">stream_url :character varying</text>
<text text-anchor="start" x="1141" y="-155.3" font-family="Times,serif" font-size="14.00">start_date :timestamp without time zone</text>
<text text-anchor="start" x="1141" y="-140.3" font-family="Times,serif" font-size="14.00">created_at :timestamp(6) without time zone</text>
<text text-anchor="start" x="1141" y="-125.3" font-family="Times,serif" font-size="14.00">updated_at :timestamp(6) without time zone</text>
<text text-anchor="start" x="1141" y="-110.3" font-family="Times,serif" font-size="14.00">creator_id :bigint</text>
<text text-anchor="start" x="1141" y="-95.3" font-family="Times,serif" font-size="14.00">integer_id :bigint</text>
</g>
<!-- Creator&#45;&gt;Event -->
<g id="edge5" class="edge">
<title>Creator&#45;&gt;Event</title>
<path fill="none" stroke="#4ad4da" d="M715.47,-385.35C880.26,-338.58 1109.4,-273.27 1119,-269 1120.57,-268.3 1122.15,-267.58 1123.73,-266.85"/>
<polygon fill="#4ad4da" stroke="#4ad4da" points="715.33,-385.39 704.48,-383.79 710.52,-386.75 705.71,-388.12 705.71,-388.12 705.71,-388.12 710.52,-386.75 706.93,-392.45 715.33,-385.39 715.33,-385.39"/>
<polygon fill="#4ad4da" stroke="#4ad4da" points="1123.77,-266.84 1134.73,-266.59 1128.28,-264.68 1132.79,-262.53 1132.79,-262.53 1132.79,-262.53 1128.28,-264.68 1130.85,-258.47 1123.77,-266.84 1123.77,-266.84"/>
</g>
<!-- ActsAsTaggableOn::Tagging -->
<g id="node7" class="node">
<title>ActsAsTaggableOn::Tagging</title>
<ellipse fill="none" stroke="black" cx="1386" cy="-18" rx="114.28" ry="18"/>
<text text-anchor="middle" x="1386" y="-14.3" font-family="Times,serif" font-size="14.00">ActsAsTaggableOn::Tagging</text>
</g>
<!-- Creator&#45;&gt;ActsAsTaggableOn::Tagging -->
<g id="edge1" class="edge">
<title>Creator&#45;&gt;ActsAsTaggableOn::Tagging</title>
<path fill="none" stroke="#0a5a59" d="M714.91,-373.57C747.08,-355.2 777.45,-331.7 799,-302 855.91,-223.59 762.87,-151.68 835,-87 861.1,-63.6 1116.25,-78.5 1150,-69 1163.59,-65.17 1164.64,-58.56 1178,-54 1210.82,-42.79 1247.82,-35.08 1281.42,-29.82"/>
<polygon fill="#0a5a59" stroke="#0a5a59" points="714.55,-373.78 703.62,-374.69 710.17,-376.2 705.8,-378.62 705.8,-378.62 705.8,-378.62 710.17,-376.2 707.98,-382.56 714.55,-373.78 714.55,-373.78"/>
<polygon fill="#0a5a59" stroke="#0a5a59" points="1281.84,-29.76 1292.4,-32.71 1286.78,-29.01 1291.73,-28.27 1291.73,-28.27 1291.73,-28.27 1286.78,-29.01 1291.06,-23.82 1281.84,-29.76 1281.84,-29.76"/>
<text text-anchor="middle" x="879.5" y="-174.3" font-family="Times,serif" font-size="14.00">owned_taggings</text>
</g>
<!-- ActsAsTaggableOn::Tag -->
<g id="node8" class="node">
<title>ActsAsTaggableOn::Tag</title>
<ellipse fill="none" stroke="black" cx="1047" cy="-18" rx="98.58" ry="18"/>
<text text-anchor="middle" x="1047" y="-14.3" font-family="Times,serif" font-size="14.00">ActsAsTaggableOn::Tag</text>
</g>
<!-- Creator&#45;&gt;ActsAsTaggableOn::Tag -->
<g id="edge2" class="edge">
<title>Creator&#45;&gt;ActsAsTaggableOn::Tag</title>
<path fill="none" stroke="#61c9cb" d="M383.86,-320.57C383.57,-320.38 383.29,-320.19 383,-320 348.52,-297.05 324.71,-305.43 305,-269 266.51,-197.85 250.48,-146.75 305,-87 346.86,-41.13 743.45,-25.81 939.02,-21.02"/>
<polygon fill="#61c9cb" stroke="#61c9cb" points="383.89,-320.59 389.71,-329.88 388.05,-323.37 392.21,-326.14 392.21,-326.14 392.21,-326.14 388.05,-323.37 394.71,-322.4 383.89,-320.59 383.89,-320.59"/>
<polygon fill="#61c9cb" stroke="#61c9cb" points="939.04,-21.02 949.14,-25.28 944.04,-20.9 949.04,-20.78 949.04,-20.78 949.04,-20.78 944.04,-20.9 948.93,-16.28 939.04,-21.02 939.04,-21.02"/>
<text text-anchor="middle" x="337.5" y="-174.3" font-family="Times,serif" font-size="14.00">owned_tags</text>
</g>
<!-- ActiveStorage::Attachment -->
<g id="node9" class="node">
<title>ActiveStorage::Attachment</title>
<ellipse fill="none" stroke="black" cx="486" cy="-178" rx="107.48" ry="18"/>
<text text-anchor="middle" x="486" y="-174.3" font-family="Times,serif" font-size="14.00">ActiveStorage::Attachment</text>
</g>
<!-- Creator&#45;&gt;ActiveStorage::Attachment -->
<g id="edge3" class="edge">
<title>Creator&#45;&gt;ActiveStorage::Attachment</title>
<path fill="none" stroke="#c447d4" d="M492.16,-310.55C491.38,-307.69 490.66,-304.84 490,-302 482.54,-269.91 482.61,-231.86 483.85,-206.67"/>
<polygon fill="#c447d4" stroke="#c447d4" points="492.2,-310.68 490.7,-321.55 493.61,-315.48 495.02,-320.28 495.02,-320.28 495.02,-320.28 493.61,-315.48 499.34,-319.01 492.2,-310.68 492.2,-310.68"/>
<polygon fill="#c447d4" stroke="#c447d4" points="483.87,-206.37 488.95,-196.65 484.17,-201.38 484.46,-196.39 484.46,-196.39 484.46,-196.39 484.17,-201.38 479.97,-196.12 483.87,-206.37 483.87,-206.37"/>
<text text-anchor="middle" x="540" y="-290.8" font-family="Times,serif" font-size="14.00">avatar_attachment</text>
</g>
<!-- ActiveStorage::Blob -->
<g id="node10" class="node">
<title>ActiveStorage::Blob</title>
<ellipse fill="none" stroke="black" cx="694" cy="-178" rx="83.39" ry="18"/>
<text text-anchor="middle" x="694" y="-174.3" font-family="Times,serif" font-size="14.00">ActiveStorage::Blob</text>
</g>
<!-- Creator&#45;&gt;ActiveStorage::Blob -->
<g id="edge4" class="edge">
<title>Creator&#45;&gt;ActiveStorage::Blob</title>
<path fill="none" stroke="#c8a651" d="M600.68,-311.33C604.98,-302.99 609.44,-294.81 614,-287 631.67,-256.77 656.12,-224.86 673.32,-203.64"/>
<polygon fill="#c8a651" stroke="#c8a651" points="600.59,-311.51 592.06,-318.39 598.33,-315.97 596.07,-320.43 596.07,-320.43 596.07,-320.43 598.33,-315.97 600.09,-322.46 600.59,-311.51 600.59,-311.51"/>
<polygon fill="#c8a651" stroke="#c8a651" points="673.42,-203.52 683.24,-198.63 676.59,-199.65 679.76,-195.78 679.76,-195.78 679.76,-195.78 676.59,-199.65 676.28,-192.93 673.42,-203.52 673.42,-203.52"/>
<text text-anchor="middle" x="646" y="-290.8" font-family="Times,serif" font-size="14.00">avatar_blob</text>
</g>
<!-- Clip -->
<g id="node3" class="node">
<title>Clip</title>
<path fill="none" stroke="black" d="M967,-350.5C967,-350.5 1203,-350.5 1203,-350.5 1209,-350.5 1215,-356.5 1215,-362.5 1215,-362.5 1215,-504.5 1215,-504.5 1215,-510.5 1209,-516.5 1203,-516.5 1203,-516.5 967,-516.5 967,-516.5 961,-516.5 955,-510.5 955,-504.5 955,-504.5 955,-362.5 955,-362.5 955,-356.5 961,-350.5 967,-350.5"/>
<text text-anchor="middle" x="1085" y="-501.3" font-family="Times,serif" font-size="14.00">Clip</text>
<polyline fill="none" stroke="black" points="955,-493.5 1215,-493.5 "/>
<text text-anchor="start" x="963" y="-478.3" font-family="Times,serif" font-size="14.00">event_id :bigint</text>
<text text-anchor="start" x="963" y="-463.3" font-family="Times,serif" font-size="14.00">created_at :timestamp(6) without time zone</text>
<text text-anchor="start" x="963" y="-448.3" font-family="Times,serif" font-size="14.00">updated_at :timestamp(6) without time zone</text>
<text text-anchor="start" x="963" y="-433.3" font-family="Times,serif" font-size="14.00">minter_eth_addr :character varying</text>
<text text-anchor="start" x="963" y="-418.3" font-family="Times,serif" font-size="14.00">token_id :character varying</text>
<text text-anchor="start" x="963" y="-403.3" font-family="Times,serif" font-size="14.00">contract_id :character varying</text>
<text text-anchor="start" x="963" y="-388.3" font-family="Times,serif" font-size="14.00">network_env :character varying</text>
<text text-anchor="start" x="963" y="-373.3" font-family="Times,serif" font-size="14.00">id :uuid</text>
<text text-anchor="start" x="963" y="-358.3" font-family="Times,serif" font-size="14.00">integer_id :bigint</text>
</g>
<!-- Clip&#45;&gt;Event -->
<g id="edge13" class="edge">
<title>Clip&#45;&gt;Event</title>
<path fill="none" stroke="#b58708" d="M1148.64,-341.87C1163.37,-320.89 1179.11,-298.47 1194.06,-277.18"/>
<polygon fill="#b58708" stroke="#b58708" points="1148.54,-342.01 1139.11,-347.61 1145.66,-346.1 1142.79,-350.2 1142.79,-350.2 1142.79,-350.2 1145.66,-346.1 1146.47,-352.78 1148.54,-342.01 1148.54,-342.01"/>
<polygon fill="#b58708" stroke="#b58708" points="1194.22,-276.95 1203.65,-271.36 1197.09,-272.86 1199.97,-268.77 1199.97,-268.77 1199.97,-268.77 1197.09,-272.86 1196.28,-266.18 1194.22,-276.95 1194.22,-276.95"/>
</g>
<!-- Clip&#45;&gt;ActsAsTaggableOn::Tagging -->
<g id="edge7" class="edge">
<title>Clip&#45;&gt;ActsAsTaggableOn::Tagging</title>
<path fill="none" stroke="#3bc184" d="M1184.35,-344.45C1197.19,-335.41 1210.56,-326.99 1224,-320 1297,-282.02 1350.36,-333.08 1402,-269 1432.04,-231.73 1431.23,-99.03 1415,-54 1413.79,-50.63 1412.09,-47.36 1410.12,-44.25"/>
<polygon fill="#3bc184" stroke="#3bc184" points="1184.11,-344.63 1173.37,-346.83 1180.06,-347.55 1176,-350.48 1176,-350.48 1176,-350.48 1180.06,-347.55 1178.63,-354.13 1184.11,-344.63 1184.11,-344.63"/>
<polygon fill="#3bc184" stroke="#3bc184" points="1409.97,-44.04 1407.65,-33.32 1407,-40.02 1404.03,-36 1404.03,-36 1404.03,-36 1407,-40.02 1400.41,-38.67 1409.97,-44.04 1409.97,-44.04"/>
<text text-anchor="middle" x="1449" y="-174.3" font-family="Times,serif" font-size="14.00">taggings</text>
</g>
<!-- Clip&#45;&gt;ActsAsTaggableOn::Tagging -->
<g id="edge9" class="edge">
<title>Clip&#45;&gt;ActsAsTaggableOn::Tagging</title>
<path fill="none" stroke="#8c81e5" d="M1180.3,-344.27C1194.22,-334.79 1208.95,-326.32 1224,-320 1329.35,-275.75 1409.62,-362.01 1476,-269 1522.99,-203.16 1512.05,-159.41 1476,-87 1466.18,-67.26 1447.59,-51.74 1429.84,-40.53"/>
<polygon fill="#8c81e5" stroke="#8c81e5" points="1179.93,-344.53 1169.16,-346.6 1175.84,-347.4 1171.75,-350.28 1171.75,-350.28 1171.75,-350.28 1175.84,-347.4 1174.34,-353.96 1179.93,-344.53 1179.93,-344.53"/>
<polygon fill="#8c81e5" stroke="#8c81e5" points="1429.82,-40.52 1423.55,-31.52 1425.53,-37.95 1421.24,-35.38 1421.24,-35.38 1421.24,-35.38 1425.53,-37.95 1418.93,-39.24 1429.82,-40.52 1429.82,-40.52"/>
<text text-anchor="middle" x="1542" y="-174.3" font-family="Times,serif" font-size="14.00">tag_taggings</text>
</g>
<!-- Clip&#45;&gt;ActsAsTaggableOn::Tagging -->
<g id="edge11" class="edge">
<title>Clip&#45;&gt;ActsAsTaggableOn::Tagging</title>
<path fill="none" stroke="#e1e189" d="M1178.68,-344.62C1193.03,-334.86 1208.32,-326.22 1224,-320 1298.5,-290.47 1532.78,-333.01 1581,-269 1629.67,-204.39 1627.84,-152.94 1581,-87 1559.79,-57.14 1524.46,-40.29 1489.66,-30.81"/>
<polygon fill="#e1e189" stroke="#e1e189" points="1178.52,-344.74 1167.75,-346.81 1174.43,-347.61 1170.34,-350.49 1170.34,-350.49 1170.34,-350.49 1174.43,-347.61 1172.93,-354.17 1178.52,-344.74 1178.52,-344.74"/>
<polygon fill="#e1e189" stroke="#e1e189" points="1489.56,-30.78 1480.97,-23.96 1484.71,-29.56 1479.87,-28.33 1479.87,-28.33 1479.87,-28.33 1484.71,-29.56 1478.76,-32.69 1489.56,-30.78 1489.56,-30.78"/>
<text text-anchor="middle" x="1657" y="-174.3" font-family="Times,serif" font-size="14.00">rarity_taggings</text>
</g>
<!-- Clip&#45;&gt;ActsAsTaggableOn::Tag -->
<g id="edge8" class="edge">
<title>Clip&#45;&gt;ActsAsTaggableOn::Tag</title>
<path fill="none" stroke="#de8792" d="M993.82,-342.28C976.7,-320.06 961.28,-295.1 952,-269 924.91,-192.78 915.02,-158.94 952,-87 962.49,-66.6 982.25,-50.95 1001.04,-39.84"/>
<polygon fill="#de8792" stroke="#de8792" points="993.99,-342.49 996.66,-353.13 997.09,-346.41 1000.19,-350.33 1000.19,-350.33 1000.19,-350.33 997.09,-346.41 1003.72,-347.54 993.99,-342.49 993.99,-342.49"/>
<polygon fill="#de8792" stroke="#de8792" points="1001.13,-39.79 1012.06,-38.83 1005.5,-37.35 1009.86,-34.9 1009.86,-34.9 1009.86,-34.9 1005.5,-37.35 1007.66,-30.98 1001.13,-39.79 1001.13,-39.79"/>
<text text-anchor="middle" x="978.5" y="-174.3" font-family="Times,serif" font-size="14.00">base_tags</text>
</g>
<!-- Clip&#45;&gt;ActsAsTaggableOn::Tag -->
<g id="edge10" class="edge">
<title>Clip&#45;&gt;ActsAsTaggableOn::Tag</title>
<path fill="none" stroke="#e424cf" d="M1055.69,-340.41C1049.6,-317.33 1044.1,-292.46 1041,-269 1030.4,-188.81 1037.44,-167.81 1041,-87 1041.59,-73.54 1042.84,-58.62 1044.05,-46.2"/>
<polygon fill="#e424cf" stroke="#e424cf" points="1055.72,-340.53 1053.98,-351.35 1057.02,-345.35 1058.33,-350.18 1058.33,-350.18 1058.33,-350.18 1057.02,-345.35 1062.67,-349.01 1055.72,-340.53 1055.72,-340.53"/>
<polygon fill="#e424cf" stroke="#e424cf" points="1044.07,-45.97 1049.56,-36.47 1044.58,-40.99 1045.08,-36.02 1045.08,-36.02 1045.08,-36.02 1044.58,-40.99 1040.6,-35.57 1044.07,-45.97 1044.07,-45.97"/>
<text text-anchor="middle" x="1052" y="-174.3" font-family="Times,serif" font-size="14.00">tags</text>
</g>
<!-- Clip&#45;&gt;ActsAsTaggableOn::Tag -->
<g id="edge12" class="edge">
<title>Clip&#45;&gt;ActsAsTaggableOn::Tag</title>
<path fill="none" stroke="#1d2448" d="M1083.32,-340.32C1081.04,-270.47 1075.66,-172.28 1063,-87 1060.97,-73.32 1057.57,-58.33 1054.43,-45.91"/>
<polygon fill="#1d2448" stroke="#1d2448" points="1083.32,-340.42 1079.14,-350.56 1083.48,-345.42 1083.64,-350.42 1083.64,-350.42 1083.64,-350.42 1083.48,-345.42 1088.13,-350.28 1083.32,-340.42 1083.32,-340.42"/>
<polygon fill="#1d2448" stroke="#1d2448" points="1054.41,-45.85 1056.24,-35.04 1053.15,-41.01 1051.88,-36.17 1051.88,-36.17 1051.88,-36.17 1053.15,-41.01 1047.53,-37.31 1054.41,-45.85 1054.41,-45.85"/>
<text text-anchor="middle" x="1095" y="-174.3" font-family="Times,serif" font-size="14.00">rarity</text>
</g>
<!-- Clip&#45;&gt;ActiveStorage::Attachment -->
<g id="edge14" class="edge">
<title>Clip&#45;&gt;ActiveStorage::Attachment</title>
<path fill="none" stroke="#0dd64d" d="M945.25,-382.53C827.65,-340.48 678.44,-287.13 678,-287 644.72,-277.14 633.31,-283.98 602,-269 566.83,-252.17 532.27,-223.32 510.15,-202.82"/>
<polygon fill="#0dd64d" stroke="#0dd64d" points="945.32,-382.55 953.22,-390.16 950.03,-384.24 954.74,-385.92 954.74,-385.92 954.74,-385.92 950.03,-384.24 956.25,-381.68 945.32,-382.55 945.32,-382.55"/>
<polygon fill="#0dd64d" stroke="#0dd64d" points="510.14,-202.82 505.96,-192.68 506.51,-199.39 502.87,-195.96 502.87,-195.96 502.87,-195.96 506.51,-199.39 499.78,-199.23 510.14,-202.82 510.14,-202.82"/>
<text text-anchor="middle" x="762.5" y="-290.8" font-family="Times,serif" font-size="14.00">video_attachment</text>
</g>
<!-- Clip&#45;&gt;ActiveStorage::Blob -->
<g id="edge15" class="edge">
<title>Clip&#45;&gt;ActiveStorage::Blob</title>
<path fill="none" stroke="#716630" d="M945.65,-363.89C895.29,-336.82 839.05,-303.87 791,-269 763.59,-249.11 735.58,-222.28 716.75,-203.1"/>
<polygon fill="#716630" stroke="#716630" points="945.83,-363.98 952.53,-372.67 950.24,-366.34 954.65,-368.7 954.65,-368.7 954.65,-368.7 950.24,-366.34 956.77,-364.73 945.83,-363.98 945.83,-363.98"/>
<polygon fill="#716630" stroke="#716630" points="716.73,-203.07 712.99,-192.77 713.24,-199.49 709.76,-195.9 709.76,-195.9 709.76,-195.9 713.24,-199.49 706.53,-199.03 716.73,-203.07 716.73,-203.07"/>
<text text-anchor="middle" x="867.5" y="-290.8" font-family="Times,serif" font-size="14.00">video_blob</text>
</g>
<!-- ApplicationRecord -->
<g id="node4" class="node">
<title>ApplicationRecord</title>
<ellipse fill="none" stroke="black" cx="1310" cy="-433.5" rx="77.19" ry="18"/>
<text text-anchor="middle" x="1310" y="-429.8" font-family="Times,serif" font-size="14.00">ApplicationRecord</text>
</g>
<!-- Event&#45;&gt;ActsAsTaggableOn::Tagging -->
<g id="edge16" class="edge">
<title>Event&#45;&gt;ActsAsTaggableOn::Tagging</title>
<path fill="none" stroke="#e1e30d" d="M1260.45,-77.65C1263.29,-69.1 1267.35,-61.04 1273,-54 1279.31,-46.13 1287.36,-39.99 1296.25,-35.21"/>
<polygon fill="#e1e30d" stroke="#e1e30d" points="1260.4,-77.84 1253.41,-86.28 1259.07,-82.66 1257.74,-87.48 1257.74,-87.48 1257.74,-87.48 1259.07,-82.66 1262.08,-88.68 1260.4,-77.84 1260.4,-77.84"/>
<polygon fill="#e1e30d" stroke="#e1e30d" points="1296.35,-35.16 1307.32,-34.93 1300.87,-33.01 1305.39,-30.86 1305.39,-30.86 1305.39,-30.86 1300.87,-33.01 1303.45,-26.8 1296.35,-35.16 1296.35,-35.16"/>
<text text-anchor="middle" x="1296" y="-57.8" font-family="Times,serif" font-size="14.00">taggings</text>
</g>
<!-- Event&#45;&gt;ActsAsTaggableOn::Tagging -->
<g id="edge18" class="edge">
<title>Event&#45;&gt;ActsAsTaggableOn::Tagging</title>
<path fill="none" stroke="#aa71e4" d="M1324.42,-79.32C1331.05,-70.51 1337.96,-61.93 1345,-54 1348.48,-50.08 1352.41,-46.19 1356.41,-42.52"/>
<polygon fill="#aa71e4" stroke="#aa71e4" points="1324.34,-79.42 1314.79,-84.79 1321.37,-83.44 1318.41,-87.47 1318.41,-87.47 1318.41,-87.47 1321.37,-83.44 1322.03,-90.14 1324.34,-79.42 1324.34,-79.42"/>
<polygon fill="#aa71e4" stroke="#aa71e4" points="1356.6,-42.36 1367.09,-39.14 1360.36,-39.06 1364.12,-35.76 1364.12,-35.76 1364.12,-35.76 1360.36,-39.06 1361.15,-32.38 1356.6,-42.36 1356.6,-42.36"/>
<text text-anchor="middle" x="1380" y="-57.8" font-family="Times,serif" font-size="14.00">tag_taggings</text>
</g>
<!-- Event&#45;&gt;ActsAsTaggableOn::Tag -->
<g id="edge17" class="edge">
<title>Event&#45;&gt;ActsAsTaggableOn::Tag</title>
<path fill="none" stroke="#439910" d="M1132.23,-81.35C1112.03,-66.57 1092.93,-52.6 1077.96,-41.65"/>
<polygon fill="#439910" stroke="#439910" points="1132.41,-81.48 1137.83,-91.01 1136.45,-84.43 1140.48,-87.38 1140.48,-87.38 1140.48,-87.38 1136.45,-84.43 1143.14,-83.75 1132.41,-81.48 1132.41,-81.48"/>
<polygon fill="#439910" stroke="#439910" points="1077.72,-41.47 1072.3,-31.93 1073.68,-38.52 1069.65,-35.56 1069.65,-35.56 1069.65,-35.56 1073.68,-38.52 1066.99,-39.2 1077.72,-41.47 1077.72,-41.47"/>
<text text-anchor="middle" x="1137.5" y="-57.8" font-family="Times,serif" font-size="14.00">base_tags</text>
</g>
<!-- Event&#45;&gt;ActsAsTaggableOn::Tag -->
<g id="edge19" class="edge">
<title>Event&#45;&gt;ActsAsTaggableOn::Tag</title>
<path fill="none" stroke="#71f8be" d="M1198.1,-79.9C1188.83,-70.24 1178.76,-61.32 1168,-54 1155.32,-45.37 1140.5,-38.85 1125.68,-33.92"/>
<polygon fill="#71f8be" stroke="#71f8be" points="1198.25,-80.07 1201.71,-90.47 1201.64,-83.75 1205.02,-87.43 1205.02,-87.43 1205.02,-87.43 1201.64,-83.75 1208.33,-84.38 1198.25,-80.07 1198.25,-80.07"/>
<polygon fill="#71f8be" stroke="#71f8be" points="1125.5,-33.86 1117.29,-26.6 1120.73,-32.38 1115.95,-30.9 1115.95,-30.9 1115.95,-30.9 1120.73,-32.38 1114.62,-35.2 1125.5,-33.86 1125.5,-33.86"/>
<text text-anchor="middle" x="1195" y="-57.8" font-family="Times,serif" font-size="14.00">tags</text>
</g>
</g>
</svg>
