<?xml version="1.0" encoding="UTF-8" standalone="no"?>
<!DOCTYPE svg PUBLIC "-//W3C//DTD SVG 1.1//EN"
 "http://www.w3.org/Graphics/SVG/1.1/DTD/svg11.dtd">
<!-- Generated by graphviz version 2.44.1 (20200629.0846)
 -->
<!-- Title: models_diagram Pages: 1 -->
<svg width="1300pt" height="260pt"
 viewBox="0.00 0.00 1300.30 260.00" xmlns="http://www.w3.org/2000/svg" xmlns:xlink="http://www.w3.org/1999/xlink">
<g id="graph0" class="graph" transform="scale(1 1) rotate(0) translate(4 256)">
<title>models_diagram</title>
<polygon fill="transparent" stroke="transparent" points="-4,4 -4,-256 1296.3,-256 1296.3,4 -4,4"/>
<!-- _diagram_info -->
<g id="node1" class="node">
<title>_diagram_info</title>
<text text-anchor="start" x="85.3" y="-237.6" font-family="Times,serif" font-size="13.00">Models diagram</text>
<text text-anchor="start" x="85.3" y="-223.6" font-family="Times,serif" font-size="13.00">Date: Nov 03 2021 &#45; 11:54</text>
<text text-anchor="start" x="85.3" y="-209.6" font-family="Times,serif" font-size="13.00">Migration version: 20211103141759</text>
<text text-anchor="start" x="85.3" y="-195.6" font-family="Times,serif" font-size="13.00">Generated by RailRoady 1.6.0</text>
<text text-anchor="start" x="85.3" y="-181.6" font-family="Times,serif" font-size="13.00">http://railroady.prestonlee.com</text>
</g>
<!-- Creator -->
<g id="node2" class="node">
<title>Creator</title>
<ellipse fill="none" stroke="black" cx="344.3" cy="-213" rx="37.09" ry="18"/>
<text text-anchor="middle" x="344.3" y="-209.3" font-family="Times,serif" font-size="14.00">Creator</text>
</g>
<!-- Link -->
<g id="node5" class="node">
<title>Link</title>
<ellipse fill="none" stroke="black" cx="27.3" cy="-105" rx="27.1" ry="18"/>
<text text-anchor="middle" x="27.3" y="-101.3" font-family="Times,serif" font-size="14.00">Link</text>
</g>
<!-- Creator&#45;&gt;Link -->
<g id="edge6" class="edge">
<title>Creator&#45;&gt;Link</title>
<path fill="none" stroke="#a31c15" d="M322.38,-189.32C315.29,-183.32 306.99,-177.53 298.3,-174 206.58,-136.76 165.94,-198 76.3,-156 63.92,-150.2 52.95,-139.84 44.55,-130.05"/>
<polygon fill="#a31c15" stroke="#a31c15" points="322.72,-189.62 327.09,-199.68 326.42,-192.99 330.11,-196.35 330.11,-196.35 330.11,-196.35 326.42,-192.99 333.14,-193.02 322.72,-189.62 322.72,-189.62"/>
<polygon fill="#a31c15" stroke="#a31c15" points="44.4,-129.86 41.63,-119.25 41.26,-125.97 38.13,-122.07 38.13,-122.07 38.13,-122.07 41.26,-125.97 34.62,-124.9 44.4,-129.86 44.4,-129.86"/>
</g>
<!-- Event -->
<g id="node6" class="node">
<title>Event</title>
<ellipse fill="none" stroke="black" cx="958.3" cy="-105" rx="31.4" ry="18"/>
<text text-anchor="middle" x="958.3" y="-101.3" font-family="Times,serif" font-size="14.00">Event</text>
</g>
<!-- Creator&#45;&gt;Event -->
<g id="edge5" class="edge">
<title>Creator&#45;&gt;Event</title>
<path fill="none" stroke="#55095b" d="M390.65,-208.26C488.59,-199.6 723.19,-174.82 913.3,-123 916.89,-122.02 920.6,-120.86 924.28,-119.63"/>
<polygon fill="#55095b" stroke="#55095b" points="390.46,-208.28 380.11,-204.66 385.48,-208.71 380.5,-209.14 380.5,-209.14 380.5,-209.14 385.48,-208.71 380.89,-213.63 390.46,-208.28 390.46,-208.28"/>
<polygon fill="#55095b" stroke="#55095b" points="924.4,-119.58 935.33,-120.45 929.11,-117.9 933.82,-116.21 933.82,-116.21 933.82,-116.21 929.11,-117.9 932.3,-111.97 924.4,-119.58 924.4,-119.58"/>
</g>
<!-- ActsAsTaggableOn::Tagging -->
<g id="node7" class="node">
<title>ActsAsTaggableOn::Tagging</title>
<ellipse fill="none" stroke="black" cx="1072.3" cy="-18" rx="114.28" ry="18"/>
<text text-anchor="middle" x="1072.3" y="-14.3" font-family="Times,serif" font-size="14.00">ActsAsTaggableOn::Tagging</text>
</g>
<!-- Creator&#45;&gt;ActsAsTaggableOn::Tagging -->
<g id="edge1" class="edge">
<title>Creator&#45;&gt;ActsAsTaggableOn::Tagging</title>
<path fill="none" stroke="#4393bb" d="M391.75,-211.02C444.85,-207.85 531.53,-196.27 593.3,-156 625.24,-135.17 610.96,-105.52 644.3,-87 688.15,-62.64 821.17,-83.14 869.3,-69 882.84,-65.02 884.01,-58.77 897.3,-54 923.16,-44.72 952.1,-37.67 978.88,-32.42"/>
<polygon fill="#4393bb" stroke="#4393bb" points="391.58,-211.03 381.36,-207.06 386.59,-211.29 381.59,-211.55 381.59,-211.55 381.59,-211.55 386.59,-211.29 381.83,-216.04 391.58,-211.03 391.58,-211.03"/>
<polygon fill="#4393bb" stroke="#4393bb" points="979.21,-32.35 989.87,-34.91 984.12,-31.42 989.03,-30.49 989.03,-30.49 989.03,-30.49 984.12,-31.42 988.19,-26.07 979.21,-32.35 979.21,-32.35"/>
<text text-anchor="middle" x="688.8" y="-101.3" font-family="Times,serif" font-size="14.00">owned_taggings</text>
</g>
<!-- ActsAsTaggableOn::Tag -->
<g id="node8" class="node">
<title>ActsAsTaggableOn::Tag</title>
<ellipse fill="none" stroke="black" cx="769.3" cy="-18" rx="98.58" ry="18"/>
<text text-anchor="middle" x="769.3" y="-14.3" font-family="Times,serif" font-size="14.00">ActsAsTaggableOn::Tag</text>
</g>
<!-- Creator&#45;&gt;ActsAsTaggableOn::Tag -->
<g id="edge2" class="edge">
<title>Creator&#45;&gt;ActsAsTaggableOn::Tag</title>
<path fill="none" stroke="#2a78c4" d="M321.29,-189.66C314.34,-183.87 306.39,-178.12 298.3,-174 212.27,-130.23 34.58,-158.62 99.3,-87 136.3,-46.05 483.16,-28.52 662.7,-22.13"/>
<polygon fill="#2a78c4" stroke="#2a78c4" points="321.42,-189.78 325.97,-199.76 325.18,-193.08 328.94,-196.38 328.94,-196.38 328.94,-196.38 325.18,-193.08 331.91,-192.99 321.42,-189.78 321.42,-189.78"/>
<polygon fill="#2a78c4" stroke="#2a78c4" points="662.7,-22.13 672.86,-26.28 667.7,-21.96 672.7,-21.78 672.7,-21.78 672.7,-21.78 667.7,-21.96 672.54,-17.28 662.7,-22.13 662.7,-22.13"/>
<text text-anchor="middle" x="131.8" y="-101.3" font-family="Times,serif" font-size="14.00">owned_tags</text>
</g>
<!-- ActiveStorage::Attachment -->
<g id="node9" class="node">
<title>ActiveStorage::Attachment</title>
<ellipse fill="none" stroke="black" cx="280.3" cy="-105" rx="107.48" ry="18"/>
<text text-anchor="middle" x="280.3" y="-101.3" font-family="Times,serif" font-size="14.00">ActiveStorage::Attachment</text>
</g>
<!-- Creator&#45;&gt;ActiveStorage::Attachment -->
<g id="edge3" class="edge">
<title>Creator&#45;&gt;ActiveStorage::Attachment</title>
<path fill="none" stroke="#bc347e" d="M318.18,-190.93C303.92,-178.82 288.35,-164.39 284.3,-156 280.91,-148.99 279.4,-140.78 278.87,-133.06"/>
<polygon fill="#bc347e" stroke="#bc347e" points="318.22,-190.96 323.01,-200.83 322.05,-194.17 325.89,-197.37 325.89,-197.37 325.89,-197.37 322.05,-194.17 328.78,-193.92 318.22,-190.96 318.22,-190.96"/>
<polygon fill="#bc347e" stroke="#bc347e" points="278.87,-133 283.17,-122.92 278.77,-128 278.67,-123.01 278.67,-123.01 278.67,-123.01 278.77,-128 274.17,-123.1 278.87,-133 278.87,-133"/>
<text text-anchor="middle" x="334.3" y="-144.8" font-family="Times,serif" font-size="14.00">avatar_attachment</text>
</g>
<!-- ActiveStorage::Blob -->
<g id="node10" class="node">
<title>ActiveStorage::Blob</title>
<ellipse fill="none" stroke="black" cx="488.3" cy="-105" rx="83.39" ry="18"/>
<text text-anchor="middle" x="488.3" y="-101.3" font-family="Times,serif" font-size="14.00">ActiveStorage::Blob</text>
</g>
<!-- Creator&#45;&gt;ActiveStorage::Blob -->
<g id="edge4" class="edge">
<title>Creator&#45;&gt;ActiveStorage::Blob</title>
<path fill="none" stroke="#16cd0b" d="M362.05,-187.49C373.84,-172.55 390.41,-153.9 408.3,-141 416.87,-134.82 426.71,-129.41 436.48,-124.81"/>
<polygon fill="#16cd0b" stroke="#16cd0b" points="361.77,-187.86 352.11,-193.05 358.73,-191.82 355.68,-195.79 355.68,-195.79 355.68,-195.79 358.73,-191.82 359.25,-198.53 361.77,-187.86 361.77,-187.86"/>
<polygon fill="#16cd0b" stroke="#16cd0b" points="436.67,-124.72 447.63,-124.75 441.23,-122.68 445.8,-120.64 445.8,-120.64 445.8,-120.64 441.23,-122.68 443.96,-116.54 436.67,-124.72 436.67,-124.72"/>
<text text-anchor="middle" x="440.3" y="-144.8" font-family="Times,serif" font-size="14.00">avatar_blob</text>
</g>
<!-- Clip -->
<g id="node3" class="node">
<title>Clip</title>
<ellipse fill="none" stroke="black" cx="879.3" cy="-213" rx="27" ry="18"/>
<text text-anchor="middle" x="879.3" y="-209.3" font-family="Times,serif" font-size="14.00">Clip</text>
</g>
<!-- Clip&#45;&gt;Event -->
<g id="edge13" class="edge">
<title>Clip&#45;&gt;Event</title>
<path fill="none" stroke="#d3e809" d="M897.02,-188.22C909.91,-170.92 927.3,-147.59 940.27,-130.19"/>
<polygon fill="#d3e809" stroke="#d3e809" points="896.93,-188.34 887.35,-193.67 893.94,-192.35 890.95,-196.36 890.95,-196.36 890.95,-196.36 893.94,-192.35 894.56,-199.05 896.93,-188.34 896.93,-188.34"/>
<polygon fill="#d3e809" stroke="#d3e809" points="940.62,-129.72 950.2,-124.39 943.61,-125.71 946.59,-121.7 946.59,-121.7 946.59,-121.7 943.61,-125.71 942.98,-119.02 940.62,-129.72 940.62,-129.72"/>
</g>
<!-- Clip&#45;&gt;ActsAsTaggableOn::Tagging -->
<g id="edge7" class="edge">
<title>Clip&#45;&gt;ActsAsTaggableOn::Tagging</title>
<path fill="none" stroke="#d8561f" d="M898.71,-189.28C903.82,-183.95 909.52,-178.51 915.3,-174 919.97,-170.35 1098.31,-74.12 1101.3,-69 1106.03,-60.9 1103.43,-52.04 1098.23,-44.06"/>
<polygon fill="#d8561f" stroke="#d8561f" points="898.47,-189.54 888.39,-193.86 895.09,-193.22 891.71,-196.91 891.71,-196.91 891.71,-196.91 895.09,-193.22 895.02,-199.95 898.47,-189.54 898.47,-189.54"/>
<polygon fill="#d8561f" stroke="#d8561f" points="1098.21,-44.03 1095.62,-33.38 1095.14,-40.09 1092.07,-36.14 1092.07,-36.14 1092.07,-36.14 1095.14,-40.09 1088.52,-38.9 1098.21,-44.03 1098.21,-44.03"/>
<text text-anchor="middle" x="1093.3" y="-101.3" font-family="Times,serif" font-size="14.00">taggings</text>
</g>
<!-- Clip&#45;&gt;ActsAsTaggableOn::Tagging -->
<g id="edge9" class="edge">
<title>Clip&#45;&gt;ActsAsTaggableOn::Tagging</title>
<path fill="none" stroke="#fd7a48" d="M897.67,-188.41C902.86,-183.01 908.87,-177.76 915.3,-174 995.59,-127.03 1061.09,-196.36 1118.3,-123 1137.16,-98.81 1130.46,-81.22 1116.3,-54 1114.16,-49.89 1111.31,-46.11 1108.08,-42.67"/>
<polygon fill="#fd7a48" stroke="#fd7a48" points="897.34,-188.79 887.33,-193.28 894.02,-192.53 890.7,-196.27 890.7,-196.27 890.7,-196.27 894.02,-192.53 894.06,-199.25 897.34,-188.79 897.34,-188.79"/>
<polygon fill="#fd7a48" stroke="#fd7a48" points="1107.87,-42.48 1103.58,-32.38 1104.2,-39.08 1100.53,-35.69 1100.53,-35.69 1100.53,-35.69 1104.2,-39.08 1097.47,-38.99 1107.87,-42.48 1107.87,-42.48"/>
<text text-anchor="middle" x="1164.3" y="-101.3" font-family="Times,serif" font-size="14.00">tag_taggings</text>
</g>
<!-- Clip&#45;&gt;ActsAsTaggableOn::Tagging -->
<g id="edge11" class="edge">
<title>Clip&#45;&gt;ActsAsTaggableOn::Tagging</title>
<path fill="none" stroke="#fcea9e" d="M896.69,-188.38C902.02,-182.76 908.34,-177.4 915.3,-174 1032.07,-116.88 1126.53,-227.9 1203.3,-123 1229.77,-86.83 1176.69,-56.46 1130.36,-38.06"/>
<polygon fill="#fcea9e" stroke="#fcea9e" points="896.6,-188.49 886.66,-193.12 893.33,-192.27 890.07,-196.06 890.07,-196.06 890.07,-196.06 893.33,-192.27 893.47,-199 896.6,-188.49 896.6,-188.49"/>
<polygon fill="#fcea9e" stroke="#fcea9e" points="1130.25,-38.01 1122.53,-30.22 1125.58,-36.22 1120.91,-34.42 1120.91,-34.42 1120.91,-34.42 1125.58,-36.22 1119.3,-38.62 1130.25,-38.01 1130.25,-38.01"/>
<text text-anchor="middle" x="1251.3" y="-101.3" font-family="Times,serif" font-size="14.00">rarity_taggings</text>
</g>
<!-- Clip&#45;&gt;ActsAsTaggableOn::Tag -->
<g id="edge8" class="edge">
<title>Clip&#45;&gt;ActsAsTaggableOn::Tag</title>
<path fill="none" stroke="#ace636" d="M846.29,-200.48C814.19,-187.3 767.29,-162.31 746.3,-123 731.85,-95.95 737.51,-83.38 746.3,-54 747.21,-50.96 748.47,-47.95 749.95,-45.03"/>
<polygon fill="#ace636" stroke="#ace636" points="846.43,-200.54 854.09,-208.38 851.08,-202.37 855.74,-204.2 855.74,-204.2 855.74,-204.2 851.08,-202.37 857.38,-200.01 846.43,-200.54 846.43,-200.54"/>
<polygon fill="#ace636" stroke="#ace636" points="750.1,-44.76 759.07,-38.45 752.65,-40.46 755.19,-36.16 755.19,-36.16 755.19,-36.16 752.65,-40.46 751.32,-33.87 750.1,-44.76 750.1,-44.76"/>
<text text-anchor="middle" x="772.8" y="-101.3" font-family="Times,serif" font-size="14.00">base_tags</text>
</g>
<!-- Clip&#45;&gt;ActsAsTaggableOn::Tag -->
<g id="edge10" class="edge">
<title>Clip&#45;&gt;ActsAsTaggableOn::Tag</title>
<path fill="none" stroke="#9e02d4" d="M867.04,-186.26C853.28,-159.27 828.96,-116.72 799.3,-87 788.85,-76.53 778.64,-81.84 771.3,-69 767.44,-62.26 766.03,-54.13 765.84,-46.41"/>
<polygon fill="#9e02d4" stroke="#9e02d4" points="867.16,-186.5 867.59,-197.45 869.39,-190.97 871.62,-195.45 871.62,-195.45 871.62,-195.45 869.39,-190.97 875.64,-193.44 867.16,-186.5 867.16,-186.5"/>
<polygon fill="#9e02d4" stroke="#9e02d4" points="765.84,-46.28 770.7,-36.45 766.02,-41.29 766.2,-36.29 766.2,-36.29 766.2,-36.29 766.02,-41.29 761.7,-36.13 765.84,-46.28 765.84,-46.28"/>
<text text-anchor="middle" x="838.3" y="-101.3" font-family="Times,serif" font-size="14.00">tags</text>
</g>
<!-- Clip&#45;&gt;ActsAsTaggableOn::Tag -->
<g id="edge12" class="edge">
<title>Clip&#45;&gt;ActsAsTaggableOn::Tag</title>
<path fill="none" stroke="#f03aa2" d="M880.55,-184.83C880.38,-157.24 875.97,-114.72 853.3,-87 840.44,-71.28 827.61,-81.1 811.3,-69 802.05,-62.14 793.53,-52.85 786.62,-44.15"/>
<polygon fill="#f03aa2" stroke="#f03aa2" points="880.55,-184.96 875.93,-194.91 880.49,-189.96 880.42,-194.96 880.42,-194.96 880.42,-194.96 880.49,-189.96 884.92,-195.02 880.55,-184.96 880.55,-184.96"/>
<polygon fill="#f03aa2" stroke="#f03aa2" points="786.55,-44.05 784.1,-33.36 783.53,-40.06 780.51,-36.07 780.51,-36.07 780.51,-36.07 783.53,-40.06 776.92,-38.79 786.55,-44.05 786.55,-44.05"/>
<text text-anchor="middle" x="886.3" y="-101.3" font-family="Times,serif" font-size="14.00">rarity</text>
</g>
<!-- Clip&#45;&gt;ActiveStorage::Attachment -->
<g id="edge14" class="edge">
<title>Clip&#45;&gt;ActiveStorage::Attachment</title>
<path fill="none" stroke="#570623" d="M842.24,-209.87C774.23,-205.21 625.42,-191.53 505.3,-156 489.85,-151.43 487.67,-145.81 472.3,-141 452.39,-134.77 407.22,-126.43 365.69,-119.46"/>
<polygon fill="#570623" stroke="#570623" points="842.47,-209.88 852.15,-215.03 847.46,-210.21 852.45,-210.54 852.45,-210.54 852.45,-210.54 847.46,-210.21 852.75,-206.05 842.47,-209.88 842.47,-209.88"/>
<polygon fill="#570623" stroke="#570623" points="365.65,-119.45 356.52,-113.37 360.72,-118.63 355.78,-117.81 355.78,-117.81 355.78,-117.81 360.72,-118.63 355.04,-122.25 365.65,-119.45 365.65,-119.45"/>
<text text-anchor="middle" x="553.8" y="-144.8" font-family="Times,serif" font-size="14.00">video_attachment</text>
</g>
<!-- Clip&#45;&gt;ActiveStorage::Blob -->
<g id="edge15" class="edge">
<title>Clip&#45;&gt;ActiveStorage::Blob</title>
<path fill="none" stroke="#d90ec2" d="M844.37,-203.65C800.54,-193.07 723.13,-174.03 657.3,-156 619.32,-145.6 576.82,-133.02 543.94,-123.08"/>
<polygon fill="#d90ec2" stroke="#d90ec2" points="844.52,-203.69 853.19,-210.41 849.38,-204.86 854.24,-206.03 854.24,-206.03 854.24,-206.03 849.38,-204.86 855.29,-201.66 844.52,-203.69 844.52,-203.69"/>
<polygon fill="#d90ec2" stroke="#d90ec2" points="543.63,-122.99 535.37,-115.78 538.85,-121.54 534.06,-120.09 534.06,-120.09 534.06,-120.09 538.85,-121.54 532.75,-124.39 543.63,-122.99 543.63,-122.99"/>
<text text-anchor="middle" x="687.8" y="-144.8" font-family="Times,serif" font-size="14.00">video_blob</text>
</g>
<!-- ApplicationRecord -->
<g id="node4" class="node">
<title>ApplicationRecord</title>
<ellipse fill="none" stroke="black" cx="1001.3" cy="-213" rx="77.19" ry="18"/>
<text text-anchor="middle" x="1001.3" y="-209.3" font-family="Times,serif" font-size="14.00">ApplicationRecord</text>
</g>
<!-- Event&#45;&gt;ActsAsTaggableOn::Tagging -->
<g id="edge16" class="edge">
<title>Event&#45;&gt;ActsAsTaggableOn::Tagging</title>
<path fill="none" stroke="#0f462c" d="M954.97,-76.76C955.35,-68.7 957.25,-60.35 962.3,-54 968.36,-46.37 976.08,-40.38 984.62,-35.67"/>
<polygon fill="#0f462c" stroke="#0f462c" points="954.97,-76.98 950.71,-87.09 955.09,-81.98 955.21,-86.98 955.21,-86.98 955.21,-86.98 955.09,-81.98 959.71,-86.87 954.97,-76.98 954.97,-76.98"/>
<polygon fill="#0f462c" stroke="#0f462c" points="984.78,-35.59 995.75,-35.27 989.28,-33.41 993.78,-31.22 993.78,-31.22 993.78,-31.22 989.28,-33.41 991.81,-27.18 984.78,-35.59 984.78,-35.59"/>
<text text-anchor="middle" x="985.3" y="-57.8" font-family="Times,serif" font-size="14.00">taggings</text>
</g>
<!-- Event&#45;&gt;ActsAsTaggableOn::Tagging -->
<g id="edge18" class="edge">
<title>Event&#45;&gt;ActsAsTaggableOn::Tagging</title>
<path fill="none" stroke="#2c1495" d="M986.15,-84.89C993.42,-79.8 1001.2,-74.25 1008.3,-69 1019.95,-60.38 1032.56,-50.62 1043.49,-42.03"/>
<polygon fill="#2c1495" stroke="#2c1495" points="986.15,-84.89 975.37,-86.91 982.04,-87.75 977.94,-90.61 977.94,-90.61 977.94,-90.61 982.04,-87.75 980.51,-94.3 986.15,-84.89 986.15,-84.89"/>
<polygon fill="#2c1495" stroke="#2c1495" points="1043.62,-41.92 1054.26,-39.25 1047.55,-38.82 1051.47,-35.72 1051.47,-35.72 1051.47,-35.72 1047.55,-38.82 1048.68,-32.19 1043.62,-41.92 1043.62,-41.92"/>
<text text-anchor="middle" x="1062.3" y="-57.8" font-family="Times,serif" font-size="14.00">tag_taggings</text>
</g>
<!-- Event&#45;&gt;ActsAsTaggableOn::Tag -->
<g id="edge17" class="edge">
<title>Event&#45;&gt;ActsAsTaggableOn::Tag</title>
<path fill="none" stroke="#5c0108" d="M923.62,-90.44C920.15,-89.22 916.67,-88.05 913.3,-87 881.82,-77.15 871.33,-82.63 841.3,-69 825.72,-61.93 809.95,-51.43 797.15,-41.88"/>
<polygon fill="#5c0108" stroke="#5c0108" points="923.85,-90.53 931.71,-98.18 928.55,-92.24 933.25,-93.95 933.25,-93.95 933.25,-93.95 928.55,-92.24 934.79,-89.72 923.85,-90.53 923.85,-90.53"/>
<polygon fill="#5c0108" stroke="#5c0108" points="797.13,-41.87 791.94,-32.21 793.17,-38.83 789.2,-35.78 789.2,-35.78 789.2,-35.78 793.17,-38.83 786.46,-39.35 797.13,-41.87 797.13,-41.87"/>
<text text-anchor="middle" x="867.8" y="-57.8" font-family="Times,serif" font-size="14.00">base_tags</text>
</g>
<!-- Event&#45;&gt;ActsAsTaggableOn::Tag -->
<g id="edge19" class="edge">
<title>Event&#45;&gt;ActsAsTaggableOn::Tag</title>
<path fill="none" stroke="#b91b98" d="M935.11,-82.29C923.57,-72.47 908.98,-61.42 894.3,-54 878.49,-46.01 860.62,-39.63 843.42,-34.62"/>
<polygon fill="#b91b98" stroke="#b91b98" points="935.41,-82.55 939.96,-92.53 939.17,-85.85 942.93,-89.15 942.93,-89.15 942.93,-89.15 939.17,-85.85 945.9,-85.77 935.41,-82.55 935.41,-82.55"/>
<polygon fill="#b91b98" stroke="#b91b98" points="843.04,-34.51 834.61,-27.49 838.22,-33.17 833.4,-31.83 833.4,-31.83 833.4,-31.83 838.22,-33.17 832.19,-36.16 843.04,-34.51 843.04,-34.51"/>
<text text-anchor="middle" x="927.3" y="-57.8" font-family="Times,serif" font-size="14.00">tags</text>
</g>
</g>
</svg>
